<?xml version="1.0" standalone="no"?>
<!DOCTYPE svg PUBLIC "-//W3C//DTD SVG 1.1//EN" "http://www.w3.org/Graphics/SVG/1.1/DTD/svg11.dtd">
<svg t="1503025160642" class="icon"   viewBox="0 0 1024 1024" version="1.1" xmlns="http://www.w3.org/2000/svg" p-id="1342" xmlns:xlink="http://www.w3.org/1999/xlink" width="200" height="200">
<defs>
<style type="text/css">
</style>
</defs>
<path d="M0 950.345143C0 991.085714 32.914286 1024 73.654857 1024h876.690286C991.085714 1024 1024 991.085714 1024 950.345143V73.654857C1024 32.914286 991.085714 0 950.345143 0H73.654857C32.914286 0 0 32.914286 0 73.654857v876.690286zM842.24 362.057143l-343.259429 397.677714a74.825143 74.825143 0 0 1-105.472 0L217.746286 583.972571a74.825143 74.825143 0 0 1 0-105.472 74.825143 74.825143 0 0 1 105.472 0L442.368 597.577143l294.4-341.065143a74.678857 74.678857 0 0 1 105.472 0 74.678857 74.678857 0 0 1 0 105.398857z" fill="#B4B4B4" p-id="1343">
</path>
</svg>


