<?xml version="1.0" encoding="UTF-8"?>
<svg width="20px" height="20px" viewBox="0 0 20 20" version="1.1" xmlns="http://www.w3.org/2000/svg" xmlns:xlink="http://www.w3.org/1999/xlink">
    <!-- Generator: Sketch 52.2 (67145) - http://www.bohemiancoding.com/sketch -->
    <title>密码/隐藏</title>
    <desc>Created with Sketch.</desc>
    <g id="密码/隐藏" stroke="none" stroke-width="1" fill="none" fill-rule="evenodd">
        <path d="M3.73466374,8.9964824 L2.03931703,11.1899568 L1.24898466,10.565748 L2.96153088,8.35005436 C2.26443657,7.71218933 1.64035931,6.98052139 1.1080977,6.16527733 L1,6 L2.30708816,6 C4.2249806,8.63643272 7.25032297,10.1949596 10.5014049,10.1949596 C13.7501415,10.1949596 16.7732778,8.63694914 18.6921687,6 L20,6 L19.892181,6.16452617 C19.3916448,6.93151894 18.8098979,7.62452761 18.1625788,8.23505217 L19.8906483,10.4707035 L19.1002927,11.0949359 L17.3987482,8.89354493 C16.6611895,9.4739374 15.8564224,9.9577491 15.0031538,10.3348122 L16.0772261,12.8927053 L15.1540415,13.2888216 L14.0665552,10.6990777 C13.1168534,11.0198314 12.1191041,11.2136481 11.0963719,11.2679916 L11.0963719,14 L10.0934435,14 L10.0934435,11.2763828 C9.04233998,11.2382022 8.01598407,11.0528132 7.03918924,10.7337149 L6.09570946,13.3541955 L5.15318109,13.0074675 L6.09951237,10.3790302 C5.25949017,10.0178545 4.46533834,9.55381246 3.73466374,8.9964824 Z" id="Combined-Shape" fill="#B3B3B3"></path>
    </g>
</svg>