<?xml version="1.0" encoding="UTF-8"?>
<svg width="20px" height="20px" viewBox="0 0 20 20" version="1.1" xmlns="http://www.w3.org/2000/svg" xmlns:xlink="http://www.w3.org/1999/xlink">
    <!-- Generator: Sketch 52.2 (67145) - http://www.bohemiancoding.com/sketch -->
    <title>密码/显示</title>
    <desc>Created with Sketch.</desc>
    <g id="密码/显示" stroke="none" stroke-width="1" fill="none" fill-rule="evenodd">
        <g id="Group-26" transform="translate(2.000000, 5.000000)" fill="#0C92F2">
            <path d="M14.4587149,2.09329231 C15.8891216,3.13081434 16.7278121,4.18271936 16.7368133,4.19410481 C17.0877289,4.63847914 17.0877289,5.36154716 16.7368133,5.80594778 C16.7285384,5.81641293 15.8935054,6.86495228 14.4640066,7.9029213 C13.6247714,8.5122926 12.7489608,8.9976861 11.8608547,9.34563908 C10.7525962,9.7798375 9.62184777,10 8.49999676,10 C7.37939086,10 6.24988756,9.7803108 5.14279638,9.34705898 C4.25533877,8.99973706 3.38007293,8.51515869 2.54127866,7.90676027 C1.11030125,6.86879125 0.271506985,5.81643922 0.263206201,5.80594778 C-0.0877354003,5.36152086 -0.0877354003,4.63847914 0.263206201,4.19410481 C0.271481045,4.18363966 1.10651402,3.13510031 2.53601285,2.09710499 C3.37522216,1.48773369 4.25103273,1.0023402 5.13913885,0.65438721 C6.24739733,0.220162499 7.37814574,0 8.49999676,0 C9.62060265,0 10.750106,0.219689201 11.8571971,0.652967316 C12.7446547,1.00028924 13.6199206,1.48486761 14.4587149,2.09329231 Z M8.49999676,1.86755542 C6.79895851,1.86755542 5.41503617,3.27277747 5.41503617,5 C5.41503617,6.72722253 6.79895851,8.13241829 8.49999676,8.13241829 C10.2010609,8.13241829 11.5849573,6.72722253 11.5849573,5 C11.5849573,3.27277747 10.201035,1.86755542 8.49999676,1.86755542 Z" id="Combined-Shape"></path>
            <path d="M8.50258752,7.29837283 C7.29434551,7.29837283 6.31137291,6.28939268 6.31137291,5.04917024 C6.31137291,4.86555537 6.33559209,4.67631855 6.38338356,4.48671048 L6.44250837,4.2520738 L6.5758691,4.45218324 C6.77909285,4.75712076 7.11451294,4.93917104 7.47309132,4.93917104 C8.07238661,4.93917104 8.55997869,4.43855268 8.55997869,3.82318829 C8.55997869,3.51034822 8.43399239,3.21935949 8.20528158,3.00376318 L8.03116743,2.83966601 L8.26634703,2.81349214 C8.347207,2.80450233 8.42669559,2.79994113 8.50258752,2.79994113 C9.71080365,2.79991461 10.6938021,3.80892127 10.6938021,5.04914372 C10.6938021,6.28936616 9.71080365,7.29837283 8.50258752,7.29837283 L8.50258752,7.29837283 Z" id="Fill-2"></path>
        </g>
    </g>
</svg>