<?xml version="1.0" encoding="UTF-8"?>
<svg width="14px" height="14px" viewBox="0 0 14 14" version="1.1" xmlns="http://www.w3.org/2000/svg" xmlns:xlink="http://www.w3.org/1999/xlink">
    <!-- Generator: Sketch 44.1 (41455) - http://www.bohemiancoding.com/sketch -->
    <title>同意</title>
    <desc>Created with Sketch.</desc>
    <defs></defs>
    <g id="4G注册流程" stroke="none" stroke-width="1" fill="none" fill-rule="evenodd">
        <g id="注册2" transform="translate(-20.000000, -403.000000)" fill="#10AEFF">
            <g id="同意" transform="translate(20.000000, 403.000000)">
                <path d="M0,12.9931545 C0,13.5492199 0.449948758,14 1.00684547,14 L12.9931545,14 C13.5492199,14 14,13.5500512 14,12.9931545 L14,1.00684547 C14,0.450780073 13.5500512,0 12.9931545,0 L1.00684547,0 C0.450780073,0 0,0.449948758 0,1.00684547 L0,12.9931545 Z M11.5148144,4.94916533 L6.8218482,10.3863456 C6.42493404,10.7825801 5.7765503,10.7825801 5.38031579,10.3863456 L2.97708213,7.98379155 C2.58084762,7.58687739 2.58084762,6.93849365 2.97708213,6.54157949 C3.37331664,6.14534498 4.02238003,6.14534498 4.41861454,6.54157949 L6.04772966,8.17069462 L10.073282,3.50763293 C10.4701961,3.11071877 11.1185799,3.11071877 11.5148144,3.50763293 C11.9117285,3.90386743 11.9117285,4.55293082 11.5148144,4.94916533 L11.5148144,4.94916533 Z" id="Fill-831"></path>
            </g>
        </g>
    </g>
</svg>