<?xml version="1.0" encoding="utf-8"?>
<!-- Generator: Adobe Illustrator 19.2.0, SVG Export Plug-In . SVG Version: 6.00 Build 0)  -->
<svg version="1.1" id="图层_1" xmlns="http://www.w3.org/2000/svg" xmlns:xlink="http://www.w3.org/1999/xlink" x="0px" y="0px"
	 viewBox="0 0 14 14" style="enable-background:new 0 0 14 14;" xml:space="preserve">
<style type="text/css">
	.st0{fill:#FFFFFF;}
	.st1{fill:#777777;}
</style>
<title>Group 5</title>
<desc>Created with Sketch.</desc>
<g id="历史轨迹">
	<g id="历史轨迹-copy-13" transform="translate(-83.000000, -431.000000)">
		<g id="Group-5" transform="translate(83.000000, 431.000000)">
			<path id="Oval-4-Copy" class="st0" d="M7,14c-3.9,0-7-3.1-7-7s3.1-7,7-7s7,3.1,7,7S10.9,14,7,14z"/>
			<path id="Oval-4-Copy_1_" class="st1" d="M7,14c-3.9,0-7-3.1-7-7s3.1-7,7-7s7,3.1,7,7S10.9,14,7,14z M7,12c2.8,0,5-2.2,5-5
				S9.8,2,7,2S2,4.2,2,7S4.2,12,7,12z"/>
		</g>
	</g>
</g>
</svg>
