<?xml version="1.0" encoding="UTF-8"?>
<svg width="14px" height="14px" viewBox="0 0 14 14" version="1.1" xmlns="http://www.w3.org/2000/svg" xmlns:xlink="http://www.w3.org/1999/xlink">
    <!-- Generator: Sketch 44.1 (41455) - http://www.bohemiancoding.com/sketch -->
    <title>Clear</title>
    <desc>Created with Sketch.</desc>
    <defs></defs>
    <g id="Page-1" stroke="none" stroke-width="1" fill="none" fill-rule="evenodd">
        <g id="我要接人-copy-4" transform="translate(-297.000000, -81.000000)" fill="#8F8E94">
            <path d="M305.06066,88 L306.826574,86.2340861 C307.115689,85.9449709 307.12132,85.4644661 306.828427,85.1715729 C306.533492,84.8766377 306.059831,84.8795093 305.765914,85.1734259 L304,86.9393398 L302.234086,85.1734259 C301.944971,84.8843107 301.464466,84.8786797 301.171573,85.1715729 C300.876638,85.4665081 300.879509,85.9401695 301.173426,86.2340861 L302.93934,88 L301.173426,89.7659139 C300.884311,90.0550291 300.87868,90.5355339 301.171573,90.8284271 C301.466508,91.1233623 301.940169,91.1204907 302.234086,90.8265741 L304,89.0606602 L305.765914,90.8265741 C306.055029,91.1156893 306.535534,91.1213203 306.828427,90.8284271 C307.123362,90.5334919 307.120491,90.0598305 306.826574,89.7659139 L305.06066,88 Z M304,95 C300.134007,95 297,91.8659932 297,88 C297,84.1340068 300.134007,81 304,81 C307.865993,81 311,84.1340068 311,88 C311,91.8659932 307.865993,95 304,95 Z" id="Clear"></path>
        </g>
    </g>
</svg>