<?xml version="1.0" encoding="UTF-8"?>
<svg width="13px" height="13px" viewBox="0 0 13 13" version="1.1" xmlns="http://www.w3.org/2000/svg" xmlns:xlink="http://www.w3.org/1999/xlink">
    <!-- Generator: Sketch 44.1 (41455) - http://www.bohemiancoding.com/sketch -->
    <title>Search Icon</title>
    <desc>Created with Sketch.</desc>
    <defs></defs>
    <g id="Page-1" stroke="none" stroke-width="1" fill="none" fill-rule="evenodd">
        <g id="我要接人-copy-4" transform="translate(-18.000000, -82.000000)" fill="#7A797B">
            <path d="M26.9972482,90.0041466 C27.0773657,90.0405938 27.1522731,90.0916129 27.2177516,90.1570914 L30.649991,93.5893308 C30.9448449,93.8841847 30.9484764,94.358606 30.6535412,94.6535412 C30.360648,94.9464344 29.8812716,94.9419317 29.5893308,94.649991 L26.1570914,91.2177516 C26.09137,91.1520301 26.0401171,91.0773874 26.0034141,90.9977995 C25.1671694,91.6270411 24.1271393,92 23,92 C20.2385763,92 18,89.7614237 18,87 C18,84.2385763 20.2385763,82 23,82 C25.7614237,82 28,84.2385763 28,87 C28,88.1274685 27.6268232,89.1677768 26.9972482,90.0041466 Z M23,91 C25.209139,91 27,89.209139 27,87 C27,84.790861 25.209139,83 23,83 C20.790861,83 19,84.790861 19,87 C19,89.209139 20.790861,91 23,91 Z" id="Search-Icon"></path>
        </g>
    </g>
</svg>