<?xml version="1.0" encoding="UTF-8"?>
<svg width="10px" height="10px" viewBox="0 0 10 10" version="1.1" xmlns="http://www.w3.org/2000/svg" xmlns:xlink="http://www.w3.org/1999/xlink">
    <!-- Generator: Sketch 44.1 (41455) - http://www.bohemiancoding.com/sketch -->
    <title>信息提示</title>
    <desc>Created with Sketch.</desc>
    <defs></defs>
    <g id="4G注册流程" stroke="none" stroke-width="1" fill="none" fill-rule="evenodd">
        <g id="车辆信息完善1" transform="translate(-233.000000, -262.000000)" fill="#10AEFF">
            <g id="信息提示" transform="translate(233.000000, 262.000000)">
                <path d="M5.15151515,10 C2.23857625,10 0,7.76142375 0,5.15151515 C0,2.23857625 2.23857625,0 5.15151515,0 C7.76142375,0 10,2.23857625 10,5.15151515 C10,7.76142375 7.76142375,10 5.15151515,10 Z M5,9.375 C7.41624578,9.375 9.375,7.41624578 9.375,5 C9.375,2.58375422 7.41624578,0.625 5,0.625 C2.58375422,0.625 0.625,2.58375422 0.625,5 C0.625,7.41624578 2.58375422,9.375 5,9.375 Z M4.0625,3.75 L5.625,3.75 L5.625,7.5 L6.25,7.5 L6.25,7.8125 L4.0625,7.8125 L4.0625,7.5 L4.6875,7.5 L4.6875,4.0625 L4.0625,4.0625 L4.0625,3.75 Z M5,3.125 C4.65482203,3.125 4.375,2.84517797 4.375,2.5 C4.375,2.15482203 4.65482203,1.875 5,1.875 C5.34517797,1.875 5.625,2.15482203 5.625,2.5 C5.625,2.84517797 5.34517797,3.125 5,3.125 Z" id="Detail-Disclosure-Copy"></path>
            </g>
        </g>
    </g>
</svg>