<?xml version="1.0" encoding="UTF-8"?>
<svg width="14px" height="14px" viewBox="0 0 14 14" version="1.1" xmlns="http://www.w3.org/2000/svg" xmlns:xlink="http://www.w3.org/1999/xlink">
    <!-- Generator: Sketch 44.1 (41455) - http://www.bohemiancoding.com/sketch -->
    <title>错误</title>
    <desc>Created with Sketch.</desc>
    <defs></defs>
    <g id="4G注册流程" stroke="none" stroke-width="1" fill="none" fill-rule="evenodd">
        <g id="身份认证1" transform="translate(-142.000000, -443.000000)">
            <g id="错误" transform="translate(142.000000, 443.000000)">
                <path d="M7,14 C10.8659932,14 14,10.8659932 14,7 C14,3.13400675 10.8659932,0 7,0 C3.13400675,0 0,3.13400675 0,7 C0,10.8659932 3.13400675,14 7,14 Z" id="Oval-61" fill="#FF4951"></path>
                <path d="M9.76782927,4.49002439 C9.87992683,4.37792683 9.87992683,4.19617073 9.76782927,4.08407317 C9.65573171,3.97197561 9.47397561,3.97197561 9.36187805,4.08407317 L6.92602439,6.51992683 L4.49002439,4.08407317 C4.37792683,3.97197561 4.19617073,3.97197561 4.08407317,4.08407317 C3.97197561,4.19617073 3.97197561,4.37792683 4.08407317,4.49002439 L6.52007317,6.92602439 L4.08407317,9.36187805 C3.97197561,9.47397561 3.97197561,9.65573171 4.08407317,9.76782927 C4.19617073,9.87992683 4.37792683,9.87992683 4.49002439,9.76782927 L6.92602439,7.33197561 L9.36187805,9.76782927 C9.47397561,9.87992683 9.65573171,9.87992683 9.76782927,9.76782927 C9.87992683,9.65573171 9.87992683,9.47397561 9.76782927,9.36187805 L7.33197561,6.92602439 L9.76782927,4.49002439 Z" id="Imported-Layers" fill="#FFFFFF"></path>
            </g>
        </g>
    </g>
</svg>