<?xml version="1.0" encoding="UTF-8"?>
<svg width="14px" height="14px" viewBox="0 0 14 14" version="1.1" xmlns="http://www.w3.org/2000/svg" xmlns:xlink="http://www.w3.org/1999/xlink">
    <!-- Generator: Sketch 44.1 (41455) - http://www.bohemiancoding.com/sketch -->
    <title>识别成功</title>
    <desc>Created with Sketch.</desc>
    <defs></defs>
    <g id="4G注册流程" stroke="none" stroke-width="1" fill="none" fill-rule="evenodd">
        <g id="身份认证6" transform="translate(-107.000000, -72.000000)">
            <g id="识别成功" transform="translate(107.000000, 72.000000)">
                <path d="M14,7.08641975 C14,3.13392593 10.8660741,0 6.91358025,0 C3.13392593,0 0,3.13392593 0,7.08641975 C0,10.8660741 3.13392593,14 6.91358025,14 C10.8660741,14 14,10.8660741 14,7.08641975 Z" id="Fill-" fill="#FFFFFF"></path>
                <path d="M3.50002877,7.16289638 L3.68232746,6.91484606 L3.68232746,6.91484606 C3.74773984,6.82584068 3.87292018,6.80671478 3.96192556,6.87212717 C3.96300843,6.872923 3.96408325,6.87372972 3.96514986,6.87454722 L5.66163125,8.17480291 L5.66163125,8.17480291 C5.735818,8.23166279 5.83949427,8.2295554 5.91130915,8.1697278 L10.3068772,4.50786411 L10.3068772,4.50786411 C10.3859761,4.44196834 10.5021771,4.44688475 10.5754273,4.51922634 L10.7050807,4.64727161 L10.7050807,4.64727161 C10.7836714,4.72488756 10.7844616,4.85151809 10.7068457,4.93010882 C10.7061791,4.93078374 10.7055078,4.93145392 10.7048317,4.93211929 L5.9322118,9.62909015 L5.9322118,9.62909015 C5.8534855,9.70656859 5.72685655,9.705557 5.64937811,9.6268307 C5.6489486,9.62639427 5.6485211,9.62595587 5.64809562,9.62551552 L3.5173582,7.42030792 L3.5173582,7.42030792 C3.44961444,7.35019649 3.44229378,7.24145528 3.50002877,7.16289638 Z" id="Fill-" fill="#10AEFF"></path>
            </g>
        </g>
    </g>
</svg>