<?xml version="1.0" encoding="UTF-8"?>
<svg width="60px" height="60px" viewBox="0 0 60 60" version="1.1" xmlns="http://www.w3.org/2000/svg" xmlns:xlink="http://www.w3.org/1999/xlink">
    <!-- Generator: Sketch 44.1 (41455) - http://www.bohemiancoding.com/sketch -->
    <title>激活成功</title>
    <desc>Created with Sketch.</desc>
    <defs></defs>
    <g id="4G注册流程" stroke="none" stroke-width="1" fill="none" fill-rule="evenodd">
        <g id="完成" transform="translate(-158.000000, -262.000000)">
            <g id="状态反馈" transform="translate(47.000000, 238.000000)">
                <g id="状态反馈区域" transform="translate(23.000000, 24.000000)">
                    <g id="激活成功" transform="translate(88.000000, 0.000000)">
                        <circle id="Oval-61" fill="#10AEFF" cx="30" cy="30" r="30"></circle>
                        <path d="M16.0411479,30.6858639 L17.3422285,28.9304454 L17.3422285,28.9304454 C17.4080007,28.8417055 17.5332574,28.8230866 17.6219973,28.8888587 C17.6226412,28.889336 17.6232823,28.8898172 17.6239204,28.8903022 L24.8371494,34.3721827 L24.8371494,34.3721827 C24.9110765,34.4283656 25.0139491,34.4262785 25.0855367,34.3671434 L42.4219072,20.046401 L42.4219072,20.046401 C42.5007841,19.9812446 42.6161157,19.9861201 42.6892123,20.0577009 L43.9374403,21.2800457 L43.9374403,21.2800457 C44.0163591,21.3573281 44.0176857,21.4839541 43.9404034,21.5628729 C43.9393445,21.5639542 43.9382735,21.5650234 43.9371903,21.5660804 L25.1059188,39.942498 L25.1060186,39.9426002 C25.0269648,40.0197445 24.9003413,40.0181966 24.823197,39.9391428 C24.8231637,39.9391087 24.8231305,39.9390746 24.8230972,39.9390405 L16.0585863,30.9445347 L16.0585863,30.9445347 C15.990109,30.8742621 15.9827223,30.7646917 16.0411479,30.6858639 Z" id="Fill-" fill="#FFFFFF"></path>
                    </g>
                </g>
            </g>
        </g>
    </g>
</svg>