<?xml version="1.0" encoding="UTF-8"?>
<svg width="257px" height="12px" viewBox="0 0 257 12" version="1.1" xmlns="http://www.w3.org/2000/svg" xmlns:xlink="http://www.w3.org/1999/xlink">
    <!-- Generator: Sketch 50.2 (55047) - http://www.bohemiancoding.com/sketch -->
    <!-- <title>Group 5</title>
    <desc>Created with Sketch.</desc>
    <defs></defs> -->
    <g id="Page-1" stroke="none" stroke-width="1" fill="none" fill-rule="evenodd">
        <g id="充值记录2" transform="translate(-59.000000, -642.000000)">
            <g id="Group-5" transform="translate(60.000000, 642.000000)">
                <path d="M90.02,5.632 L82.484,5.632 L82.484,9.172 C82.484,9.7 82.76,9.976 83.312,9.976 L89.336,9.976 C89.624,9.976 89.864,9.904 90.044,9.76 C90.284,9.544 90.44,8.776 90.512,7.456 L91.352,7.72 C91.232,9.208 91.028,10.096 90.74,10.408 C90.476,10.66 90.08,10.792 89.576,10.816 L83.072,10.816 C82.1,10.816 81.62,10.312 81.62,9.328 L81.62,3.028 L82.484,3.028 L82.484,4.804 L89.144,4.804 L89.144,1.672 L81.14,1.672 L81.14,0.832 L90.02,0.832 L90.02,5.632 Z M99.524,7.3 L97.172,7.3 L97.172,6.46 L102.776,6.46 L102.776,7.3 L100.412,7.3 L100.412,9.952 L103.328,9.952 L103.328,10.792 L96.632,10.792 L96.632,9.952 L99.524,9.952 L99.524,7.3 Z M100.352,3.916 C99.476,4.684 98.372,5.332 97.052,5.848 L96.512,5.14 C98.756,4.3 100.316,3.1 101.18,1.564 L97.076,1.564 L97.076,0.736 L102.212,0.736 L102.212,1.42 C101.9,2.14 101.468,2.788 100.916,3.376 C101.924,4.012 102.788,4.648 103.484,5.284 L102.848,5.92 C102.224,5.284 101.396,4.612 100.352,3.916 Z M96.512,8.536 L96.512,9.352 C95.384,9.928 94.1,10.396 92.684,10.756 L92.564,9.928 C94.064,9.58 95.384,9.112 96.512,8.536 Z M94.604,0.184 L95.432,0.508 C94.832,2.044 94.232,3.256 93.62,4.168 C94.172,4.12 94.724,4.048 95.288,3.952 C95.516,3.532 95.756,3.088 95.996,2.62 L96.788,2.92 C95.684,4.948 94.76,6.388 94.028,7.252 C94.868,7.072 95.696,6.832 96.536,6.532 L96.536,7.324 C95.3,7.756 94.112,8.044 92.972,8.2 L92.744,7.408 C92.888,7.348 93.02,7.264 93.128,7.168 C93.608,6.688 94.184,5.872 94.856,4.72 C94.172,4.828 93.488,4.924 92.804,5.02 L92.588,4.228 C92.72,4.168 92.84,4.06 92.948,3.904 C93.584,2.824 94.136,1.576 94.604,0.184 Z M114.932,1.984 L114.932,11.02 L114.092,11.02 L114.092,10.216 L111.836,10.216 L111.836,11.02 L111.008,11.02 L111.008,1.984 L114.932,1.984 Z M111.836,9.388 L114.092,9.388 L114.092,2.812 L111.836,2.812 L111.836,9.388 Z M106.592,0.232 L107.456,0.232 L107.456,2.656 L109.904,2.656 C109.904,6.4 109.844,8.716 109.724,9.604 C109.604,10.588 109.016,11.092 107.96,11.092 C107.78,11.092 107.48,11.068 107.048,11.044 L106.832,10.252 C107.216,10.276 107.552,10.3 107.84,10.3 C108.452,10.3 108.812,9.952 108.908,9.268 C108.98,8.644 109.028,6.712 109.052,3.496 L107.456,3.496 C107.408,7.036 106.616,9.616 105.08,11.248 L104.444,10.684 C105.836,9.184 106.556,6.784 106.592,3.496 L104.672,3.496 L104.672,2.656 L106.592,2.656 L106.592,0.232 Z M117.344,1.168 L119.684,1.168 L119.684,0.16 L120.524,0.16 L120.524,1.168 L122.696,1.168 L122.696,1.96 L120.524,1.96 L120.524,3.064 L123.404,3.064 C123.356,2.164 123.332,1.192 123.332,0.136 L124.172,0.136 C124.172,1.228 124.196,2.2 124.244,3.064 L127.268,3.064 L127.268,3.844 L124.292,3.844 C124.364,4.912 124.46,5.788 124.592,6.46 C124.664,6.808 124.736,7.132 124.808,7.444 C125.24,6.58 125.588,5.572 125.852,4.444 L126.62,4.792 C126.236,6.292 125.744,7.552 125.144,8.56 C125.24,8.836 125.348,9.076 125.456,9.292 C125.768,9.88 126.02,10.18 126.212,10.18 C126.404,10.168 126.572,9.532 126.716,8.26 L127.46,8.656 C127.196,10.252 126.824,11.056 126.32,11.056 C125.912,11.056 125.468,10.684 125,9.964 C124.868,9.76 124.748,9.544 124.652,9.316 C124.028,10.132 123.32,10.744 122.528,11.176 L122.06,10.48 C122.924,10 123.668,9.304 124.28,8.38 C124.112,7.852 123.956,7.276 123.824,6.64 C123.656,5.848 123.524,4.924 123.452,3.844 L116.72,3.844 L116.72,3.064 L119.684,3.064 L119.684,1.96 L117.344,1.96 L117.344,1.168 Z M125.408,0.292 C126.008,0.964 126.476,1.552 126.8,2.056 L126.152,2.512 C125.816,1.972 125.348,1.372 124.748,0.712 L125.408,0.292 Z M122.696,8.752 L122.696,9.52 C122.096,9.592 121.472,9.676 120.824,9.748 L120.824,11.164 L119.972,11.164 L119.972,9.832 C119.108,9.916 118.196,9.988 117.236,10.06 L117.128,9.256 C118.136,9.196 119.084,9.124 119.972,9.052 L119.972,7.984 L117.632,7.984 L117.464,7.276 C117.8,6.868 118.112,6.376 118.4,5.776 L117.08,5.776 L117.08,5.008 L118.736,5.008 C118.856,4.72 118.964,4.408 119.072,4.096 L119.9,4.252 C119.804,4.516 119.708,4.768 119.612,5.008 L122.756,5.008 L122.756,5.776 L119.276,5.776 C119.012,6.328 118.724,6.82 118.424,7.252 L119.972,7.252 L119.972,6.316 L120.824,6.316 L120.824,7.252 L122.648,7.252 L122.648,7.984 L120.824,7.984 L120.824,8.968 C121.484,8.896 122.108,8.824 122.696,8.752 Z M133.268,7.264 L130.136,7.264 C129.992,8.752 129.62,10.06 129.02,11.176 L128.42,10.552 C129.068,9.328 129.404,7.888 129.428,6.208 L129.428,1.228 C130.856,1.06 131.972,0.724 132.788,0.232 L133.364,0.892 C132.5,1.36 131.444,1.684 130.196,1.864 L130.196,3.256 L133.268,3.256 L133.268,7.264 Z M130.196,4.096 L130.196,6.208 C130.196,6.292 130.184,6.376 130.184,6.472 L132.476,6.472 L132.476,4.096 L130.196,4.096 Z M135.08,4.732 L135.08,6.52 C135.056,8.596 134.792,10.156 134.264,11.2 L133.484,10.816 C134,9.796 134.276,8.368 134.3,6.52 L134.3,1.096 C135.992,1.024 137.432,0.748 138.608,0.256 L139.04,1.012 C137.852,1.468 136.532,1.732 135.068,1.804 L135.08,3.904 L139.46,3.904 L139.46,4.732 L138.104,4.732 L138.104,11.2 L137.252,11.2 L137.252,4.732 L135.08,4.732 Z M144.2,4.516 L144.2,5.824 L148.964,5.824 L148.964,4.516 L144.2,4.516 Z M148.964,6.58 L144.2,6.58 L144.2,7.852 L148.964,7.852 L148.964,6.58 Z M148.964,8.608 L144.2,8.608 L144.2,11.176 L143.384,11.176 L143.384,4.9 C142.712,5.74 141.932,6.52 141.068,7.216 L140.504,6.484 C142.016,5.284 143.18,3.916 144.008,2.368 L140.828,2.368 L140.828,1.528 L144.404,1.528 C144.608,1.06 144.788,0.592 144.932,0.124 L145.808,0.232 C145.664,0.676 145.52,1.108 145.352,1.528 L151.316,1.528 L151.316,2.368 L144.992,2.368 C144.752,2.848 144.5,3.316 144.212,3.76 L149.78,3.76 L149.78,10.24 C149.78,10.828 149.444,11.128 148.772,11.152 L147.428,11.152 L147.212,10.36 C147.668,10.384 148.1,10.408 148.496,10.408 C148.808,10.408 148.964,10.264 148.964,9.976 L148.964,8.608 Z M163.592,7.864 C163.484,9.088 163.316,9.892 163.088,10.264 C162.86,10.624 162.404,10.816 161.732,10.816 L158.624,10.816 C157.88,10.816 157.508,10.432 157.508,9.664 L157.508,4.42 L161.78,4.42 L161.78,1.624 L156.932,1.624 L156.932,0.784 L162.608,0.784 L162.608,5.248 L158.348,5.248 L158.348,9.352 C158.348,9.76 158.552,9.976 158.96,9.988 L161.576,9.988 C162.044,9.988 162.344,9.82 162.476,9.496 C162.596,9.172 162.68,8.536 162.74,7.576 L163.592,7.864 Z M153.944,0.316 C154.76,0.928 155.444,1.54 155.996,2.164 L155.408,2.764 C154.904,2.176 154.208,1.552 153.344,0.904 L153.944,0.316 Z M152.54,3.868 L155.132,3.868 L155.132,9.268 C155.6,8.908 156.104,8.476 156.632,7.996 L156.848,8.908 C156.08,9.604 155.252,10.216 154.388,10.768 L154.052,9.988 C154.22,9.844 154.304,9.676 154.304,9.484 L154.304,4.696 L152.54,4.696 L152.54,3.868 Z M166.064,0.652 L172.988,0.652 L172.988,4.552 L175.148,4.552 L175.148,5.332 L170.36,5.332 L170.36,6.7 C170.648,7.036 170.948,7.348 171.284,7.648 C172.136,7.168 172.88,6.484 173.504,5.596 L174.164,6.148 C173.492,7.012 172.736,7.672 171.872,8.128 C172.808,8.86 173.912,9.508 175.184,10.06 L174.752,10.828 C172.904,9.964 171.44,8.908 170.36,7.66 L170.36,10.132 C170.36,10.852 170.036,11.212 169.412,11.212 L168.032,11.212 L167.852,10.396 C168.296,10.432 168.716,10.456 169.124,10.456 C169.364,10.456 169.496,10.276 169.496,9.928 L169.496,7.732 C168.26,8.86 166.784,9.868 165.08,10.78 L164.732,9.976 C166.58,9.1 168.164,8.056 169.496,6.832 L169.496,5.332 L164.864,5.332 L164.864,4.552 L172.112,4.552 L172.112,3.388 L166.472,3.388 L166.472,2.632 L172.112,2.632 L172.112,1.432 L166.064,1.432 L166.064,0.652 Z M166.16,5.788 C166.892,6.292 167.504,6.808 167.996,7.312 L167.444,7.876 C166.988,7.396 166.376,6.88 165.584,6.34 L166.16,5.788 Z" id="已经加载所有记录" fill="#B3B3B3"></path>
                <g id="Group-4" transform="translate(0.000000, 4.000000)">
                    <g id="Group-3" transform="translate(181.000000, 0.000000)">
                        <circle id="Oval" fill="#D5D5D5" cx="2" cy="2" r="2"></circle>
                        <path d="M4,2 L74,2" id="Path-2" stroke="#D5D5D5" stroke-linecap="round"></path>
                    </g>
                    <g id="Group-3" transform="translate(37.000000, 2.000000) scale(-1, 1) translate(-37.000000, -2.000000) ">
                        <circle id="Oval" fill="#D5D5D5" cx="2" cy="2" r="2"></circle>
                        <path d="M4,2 L74,2" id="Path-2" stroke="#D5D5D5" stroke-linecap="round"></path>
                    </g>
                </g>
            </g>
        </g>
    </g>
</svg>

