<?xml version="1.0" encoding="UTF-8"?>
<svg width="24px" height="24px" viewBox="0 0 24 24" version="1.1" xmlns="http://www.w3.org/2000/svg" xmlns:xlink="http://www.w3.org/1999/xlink">
    <!-- Generator: Sketch 50.2 (55047) - http://www.bohemiancoding.com/sketch -->
    <title>提示图标/2</title>
    <desc>Created with Sketch.</desc>
    <defs></defs>
    <g id="提示图标/2" stroke="none" stroke-width="1" fill="none" fill-rule="evenodd">
        <path d="M12,19 C8.13400675,19 5,15.8659932 5,12 C5,8.13400675 8.13400675,5 12,5 C15.8659932,5 19,8.13400675 19,12 C19,15.8659932 15.8659932,19 12,19 Z M11.34375,17.25 L12.65625,17.25 L12.65625,10.25 L11.34375,10.25 L11.34375,17.25 Z M11.125,8.50872434 C11.125,8.73555718 11.2101906,8.9377566 11.3805718,9.1122434 C11.5509531,9.28878299 11.7572581,9.37602639 12.0005132,9.37602639 C12.2427419,9.37602639 12.4490469,9.29083578 12.6194282,9.12045455 C12.7908358,8.95007331 12.875,8.74376833 12.875,8.5005132 C12.875,8.25828446 12.7908358,8.05197947 12.6194282,7.88159824 C12.4490469,7.71019062 12.2427419,7.625 12.0005132,7.625 C11.7572581,7.625 11.5509531,7.71326979 11.3805718,7.88878299 C11.2101906,8.06429619 11.125,8.27162757 11.125,8.50872434 Z" id="Combined-Shape" fill="#FFFFFF"></path>
    </g>
</svg>