<?xml version="1.0" encoding="UTF-8"?>
<svg width="40px" height="40px" viewBox="0 0 40 40" version="1.1" xmlns="http://www.w3.org/2000/svg" xmlns:xlink="http://www.w3.org/1999/xlink">
    <!-- Generator: Sketch 50.2 (55047) - http://www.bohemiancoding.com/sketch -->
    <title>img_flow_recommand_flag</title>
    <desc>Created with Sketch.</desc>
    <defs></defs>
    <g id="img_flow_recommand_flag" stroke="none" stroke-width="1" fill="none" fill-rule="evenodd">
        <g id="推荐">
            <path d="M36,0 L0,0 L40,40 L40,4 C40,1.790861 38.209139,4.05812251e-16 36,0 Z" id="Combined-Shape" fill="#FA4E67"></path>
            <path d="M21.9239551,13.0719551 L21.9239551,14.2929551 L23.6289551,14.2929551 L23.6289551,13.0719551 L21.9239551,13.0719551 Z M21.9239551,15.2609551 L21.9239551,16.6249551 L23.6289551,16.6249551 L23.6289551,15.2609551 L21.9239551,15.2609551 Z M21.9239551,17.6259551 L21.9239551,18.1209551 L20.8899551,18.1209551 L20.8899551,12.0269551 C20.6699551,12.3459551 20.4279551,12.6539551 20.1749551,12.9619551 L19.8229551,11.8619551 C20.6919551,10.6959551 21.3079551,9.43095514 21.6599551,8.04495514 L22.6719551,8.24295514 C22.5179551,8.79295514 22.3309551,9.32095514 22.1109551,9.82695514 L23.7939551,9.82695514 C23.6179551,9.29895514 23.4199551,8.77095514 23.1999551,8.26495514 L24.2009551,8.00095514 C24.4429551,8.67195514 24.6409551,9.27695514 24.7729551,9.82695514 L26.4559551,9.82695514 L26.4559551,10.8279551 L24.6629551,10.8279551 L24.6629551,12.0929551 L26.2359551,12.0929551 L26.2359551,13.0719551 L24.6629551,13.0719551 L24.6629551,14.2929551 L26.2359551,14.2929551 L26.2359551,15.2609551 L24.6629551,15.2609551 L24.6629551,16.6249551 L26.5769551,16.6249551 L26.5769551,17.6259551 L21.9239551,17.6259551 Z M23.6289551,10.8279551 L21.9239551,10.8279551 L21.9239551,12.0929551 L23.6289551,12.0929551 L23.6289551,10.8279551 Z M20.0099551,12.4669551 L20.0099551,13.5339551 C19.7019551,13.6769551 19.3829551,13.8089551 19.0749551,13.9409551 L19.0749551,16.9329551 C19.0749551,17.6479551 18.7009551,18.0109551 17.9639551,18.0109551 L16.9739551,18.0109551 L16.7429551,16.9989551 C17.0399551,17.0429551 17.3259551,17.0649551 17.6009551,17.0649551 C17.8869551,17.0649551 18.0299551,16.9329551 18.0299551,16.6689551 L18.0299551,14.3369551 C17.6119551,14.4799551 17.1829551,14.6119551 16.7649551,14.7329551 L16.5009551,13.6769551 C17.0179551,13.5669551 17.5239551,13.4349551 18.0299551,13.2809551 L18.0299551,10.9709551 L16.7099551,10.9709551 L16.7099551,9.95895514 L18.0299551,9.95895514 L18.0299551,8.02295514 L19.0749551,8.02295514 L19.0749551,9.95895514 L20.0979551,9.95895514 L20.0979551,10.9709551 L19.0749551,10.9709551 L19.0749551,12.8959551 C19.3939551,12.7639551 19.7019551,12.6209551 20.0099551,12.4669551 Z M28.0729551,8.72695514 L30.4929551,8.72695514 L30.4929551,8.03395514 L31.5489551,8.03395514 L31.5489551,8.72695514 L34.2109551,8.72695514 L34.2109551,8.03395514 L35.2669551,8.03395514 L35.2669551,8.72695514 L37.6869551,8.72695514 L37.6869551,9.68395514 L35.2669551,9.68395514 L35.2669551,10.3989551 L34.2109551,10.3989551 L34.2109551,9.68395514 L31.5489551,9.68395514 L31.5489551,10.3879551 L30.4929551,10.3879551 L30.4929551,9.68395514 L28.0729551,9.68395514 L28.0729551,8.72695514 Z M28.2489551,11.0259551 L31.3069551,11.0259551 C31.4279551,10.7729551 31.5379551,10.5199551 31.6369551,10.2779551 L32.6489551,10.4539551 C32.5829551,10.6519551 32.5059551,10.8389551 32.4289551,11.0259551 L37.6319551,11.0259551 L37.6319551,11.9829551 L31.9559551,11.9829551 C31.6259551,12.5439551 31.2409551,13.0719551 30.8009551,13.5779551 L30.8009551,18.1979551 L29.7999551,18.1979551 L29.7999551,14.5569551 C29.3929551,14.9089551 28.9639551,15.2389551 28.5019551,15.5469551 L27.8419551,14.6889551 C29.0739551,13.8969551 30.0309551,12.9949551 30.7349551,11.9829551 L28.2489551,11.9829551 L28.2489551,11.0259551 Z M34.3429551,14.3039551 C34.6289551,14.1169551 35.0139551,13.8749551 35.4979551,13.5779551 L32.1979551,13.5779551 L32.1979551,12.6319551 L36.9939551,12.6319551 L36.9939551,13.3799551 C36.5319551,13.7429551 35.9929551,14.1389551 35.3989551,14.5789551 L35.3989551,14.8319551 L37.6979551,14.8319551 L37.6979551,15.8219551 L35.3989551,15.8219551 L35.3989551,17.1859551 C35.3989551,17.8349551 35.0689551,18.1649551 34.4199551,18.1649551 L33.0889551,18.1649551 L32.7809551,17.1529551 C33.2979551,17.1969551 33.7049551,17.2189551 34.0019551,17.2189551 C34.2219551,17.2189551 34.3429551,17.1089551 34.3429551,16.8889551 L34.3429551,15.8219551 L31.4279551,15.8219551 L31.4279551,14.8319551 L34.3429551,14.8319551 L34.3429551,14.3039551 Z" fill="#FFFFFF" transform="translate(27.099455, 13.099455) rotate(45.000000) translate(-27.099455, -13.099455) "></path>
        </g>
    </g>
</svg>