<?xml version="1.0" encoding="UTF-8"?>
<svg width="40px" height="40px" viewBox="0 0 40 40" version="1.1" xmlns="http://www.w3.org/2000/svg" xmlns:xlink="http://www.w3.org/1999/xlink">
    <!-- Generator: Sketch 50.2 (55047) - http://www.bohemiancoding.com/sketch -->
    <title>img_flow_Honorable_flag</title>
    <desc>Created with Sketch.</desc>
    <defs></defs>
    <g id="img_flow_Honorable_flag" stroke="none" stroke-width="1" fill="none" fill-rule="evenodd">
        <g id="至尊">
            <path d="M36,0 L0,0 L40,40 L40,4 C40,1.790861 38.209139,4.05812251e-16 36,0 Z" id="Combined-Shape" fill="#FA4E67"></path>
            <path d="M17.7563952,8.50939522 L26.9523952,8.50939522 L26.9523952,9.51039522 L21.8483952,9.51039522 C21.2653952,10.4673952 20.6053952,11.2593952 19.8573952,11.8973952 C21.4193952,11.7873952 22.9483952,11.6223952 24.4443952,11.3803952 C24.1583952,11.0503952 23.8723952,10.7313952 23.5753952,10.4123952 L24.4223952,9.87339522 C25.4343952,10.9403952 26.2153952,11.8643952 26.7543952,12.6563952 L25.8853952,13.2723952 C25.6653952,12.9423952 25.4233952,12.6013952 25.1593952,12.2603952 C22.9373952,12.6013952 20.6603952,12.8323952 18.3173952,12.9423952 L18.0313952,12.0403952 C19.0543952,11.4683952 19.9233952,10.6323952 20.6383952,9.51039522 L17.7563952,9.51039522 L17.7563952,8.50939522 Z M18.2183952,14.2183952 L21.8483952,14.2183952 L21.8483952,13.0853952 L22.9043952,13.0853952 L22.9043952,14.2183952 L26.4683952,14.2183952 L26.4683952,15.2083952 L22.9043952,15.2083952 L22.9043952,16.7593952 L27.2493952,16.7593952 L27.2493952,17.7823952 L17.5033952,17.7823952 L17.5033952,16.7593952 L21.8483952,16.7593952 L21.8483952,15.2083952 L18.2183952,15.2083952 L18.2183952,14.2183952 Z M29.8123952,10.3023952 L32.1553952,10.3023952 L32.1553952,9.74139522 L28.9213952,9.74139522 L28.9213952,8.85039522 L31.2533952,8.85039522 C31.1213952,8.58639522 30.9783952,8.34439522 30.8353952,8.12439522 L31.8803952,7.94839522 C32.0123952,8.21239522 32.1443952,8.52039522 32.2653952,8.85039522 L34.8503952,8.85039522 C35.0043952,8.56439522 35.1253952,8.27839522 35.2133952,7.97039522 L36.2913952,8.11339522 C36.2033952,8.37739522 36.0823952,8.61939522 35.9503952,8.85039522 L38.3483952,8.85039522 L38.3483952,9.74139522 L35.0923952,9.74139522 L35.0923952,10.3023952 L37.4243952,10.3023952 L37.4243952,14.8123952 L36.6323952,14.8123952 L36.6323952,15.3293952 L38.5243952,15.3293952 L38.5243952,16.2313952 L36.6323952,16.2313952 L36.6323952,16.9463952 C36.6323952,17.6943952 36.2913952,18.0793952 35.6203952,18.0793952 L34.1023952,18.0793952 L33.8823952,17.1333952 C34.3773952,17.1773952 34.8393952,17.1993952 35.2793952,17.1993952 C35.5103952,17.1993952 35.6313952,17.0233952 35.6313952,16.6823952 L35.6313952,16.2313952 L31.4183952,16.2313952 C32.0233952,16.5833952 32.5403952,16.9463952 32.9583952,17.2983952 L32.2543952,18.0023952 C31.8253952,17.5953952 31.2203952,17.1553952 30.4393952,16.6823952 L30.9013952,16.2313952 L28.6903952,16.2313952 L28.6903952,15.3293952 L35.6313952,15.3293952 L35.6313952,14.8123952 L29.8123952,14.8123952 L29.8123952,10.3023952 Z M34.1133952,10.3023952 L34.1133952,9.74139522 L33.1343952,9.74139522 L33.1343952,10.3023952 L34.1133952,10.3023952 Z M36.4013952,13.9983952 L36.4013952,13.5473952 L30.8353952,13.5473952 L30.8353952,13.9983952 L36.4013952,13.9983952 Z M30.8353952,12.7883952 L36.4013952,12.7883952 L36.4013952,12.3593952 L35.1253952,12.3593952 C34.4433952,12.3593952 34.1133952,12.0733952 34.1133952,11.5123952 L34.1133952,11.1273952 L33.0353952,11.1273952 C32.8373952,11.7873952 32.3753952,12.3043952 31.6383952,12.6563952 L30.9233952,12.0183952 C31.4513952,11.7983952 31.8033952,11.5013952 31.9903952,11.1273952 L30.8353952,11.1273952 L30.8353952,12.7883952 Z M35.0923952,11.1273952 L35.0923952,11.4023952 C35.0923952,11.5563952 35.1913952,11.6443952 35.4113952,11.6443952 L36.4013952,11.6443952 L36.4013952,11.1273952 L35.0923952,11.1273952 Z" fill="#FFFFFF" transform="translate(28.013895, 13.013895) rotate(45.000000) translate(-28.013895, -13.013895) "></path>
        </g>
    </g>
</svg>