<?xml version="1.0" encoding="UTF-8"?>
<svg width="40px" height="40px" viewBox="0 0 40 40" version="1.1" xmlns="http://www.w3.org/2000/svg" xmlns:xlink="http://www.w3.org/1999/xlink">
    <!-- Generator: Sketch 50.2 (55047) - http://www.bohemiancoding.com/sketch -->
    <title>img_flow_hot_flag</title>
    <desc>Created with Sketch.</desc>
    <defs>
        <path d="M36,0 L0,0 L40,40 L40,4 C40,1.790861 38.209139,4.05812251e-16 36,0 Z" id="path-1"></path>
    </defs>
    <g id="img_flow_hot_flag" stroke="none" stroke-width="1" fill="none" fill-rule="evenodd">
        <g id="人气">
            <mask id="mask-2" fill="white">
                <use xlink:href="#path-1"></use>
            </mask>
            <use id="Mask" fill="#FA4E67" xlink:href="#path-1"></use>
            <path d="M21.6674742,5.80547423 L20.5154742,5.80547423 C20.5154742,6.26147423 20.5034742,6.88547423 20.5034742,7.68947423 C20.4074742,11.1334742 18.7394742,13.8334742 15.4994742,15.8014742 L16.1954742,16.8214742 C18.7154742,15.1894742 20.3714742,13.1254742 21.1634742,10.6294742 C22.0754742,13.1974742 23.6834742,15.2614742 25.9874742,16.7974742 L26.7434742,15.8014742 C24.0074742,14.1214742 22.2794742,11.6854742 21.5834742,8.49347423 C21.6314742,7.74947423 21.6674742,6.86147423 21.6674742,5.80547423 Z M30.5234742,7.89347423 C29.9474742,8.88947423 29.3114742,9.74147423 28.6034742,10.4494742 L27.8714742,9.56147423 C28.8194742,8.62547423 29.6354742,7.32947423 30.3074742,5.68547423 L31.4594742,5.93747423 C31.3394742,6.23747423 31.2074742,6.52547423 31.0874742,6.78947423 L37.9034742,6.78947423 L37.9034742,7.89347423 L30.5234742,7.89347423 Z M37.5554742,16.8454742 C37.8554742,16.8454742 38.1314742,16.6654742 38.3714742,16.3174742 C38.6114742,15.9574742 38.8274742,15.2494742 39.0314742,14.1814742 L38.0834742,13.7254742 C37.9874742,14.1934742 37.9034742,14.6014742 37.8194742,14.9494742 C37.6994742,15.3574742 37.5794742,15.5734742 37.4474742,15.5734742 C37.1834742,15.5734742 37.0034742,15.3694742 36.8954742,14.9854742 C36.7514742,14.5894742 36.6914742,13.6894742 36.6914742,12.2974742 L36.6914742,10.5574742 L28.9514742,10.5574742 L28.9514742,11.6374742 L35.6474742,11.6374742 L35.6474742,12.2974742 C35.6474742,14.1214742 35.8034742,15.3454742 36.1154742,15.9454742 C36.4274742,16.5334742 36.9074742,16.8334742 37.5554742,16.8454742 Z M30.2714742,8.70947423 L37.3514742,8.70947423 L37.3514742,9.75347423 L30.2714742,9.75347423 L30.2714742,8.70947423 Z" fill="#FFFFFF" mask="url(#mask-2)" transform="translate(27.265474, 11.265474) rotate(45.000000) translate(-27.265474, -11.265474) "></path>
        </g>
    </g>
</svg>