<?xml version="1.0" encoding="UTF-8"?>
<svg width="16px" height="16px" viewBox="0 0 16 16" version="1.1" xmlns="http://www.w3.org/2000/svg" xmlns:xlink="http://www.w3.org/1999/xlink">
    <!-- Generator: Sketch 50.2 (55047) - http://www.bohemiancoding.com/sketch -->
    <title>主套餐</title>
    <desc>Created with Sketch.</desc>
    <defs>
        <polygon id="path-1" points="0.00117073171 0.0156097561 15.9843707 0.0156097561 15.9843707 15.9999805 0.00117073171 15.9999805"></polygon>
    </defs>
    <g id="Page-1" stroke="none" stroke-width="1" fill="none" fill-rule="evenodd">
        <g id="充值列表1" transform="translate(-153.000000, -76.000000)">
            <g id="主套餐" transform="translate(153.000000, 76.000000)">
                <g id="Group-4">
                    <mask id="mask-2" fill="white">
                        <use xlink:href="#path-1"></use>
                    </mask>
                    <g id="Clip-2"></g>
                    <path d="M0,5.26759024 C0,8.16819512 2.35137561,10.5196488 5.25198049,10.5196488 C8.15258537,10.5196488 10.504039,8.16819512 10.504039,5.26759024 C10.504039,2.36698537 8.15258537,0.0156097561 5.25198049,0.0156097561 C2.35137561,0.0156097561 0,2.36698537 0,5.26759024 Z" id="Fill-1" fill="#FFD5BC" mask="url(#mask-2)"></path>
                    <path d="M5.36616585,7.32277073 L1.94093659,7.32277073 C0.867765854,7.32277073 0,6.45502439 0,5.38177561 L0,1.95654634 C0,0.88337561 0.867765854,0.0156097561 1.94093659,0.0156097561 L5.36616585,0.0156097561 C6.43941463,0.0156097561 7.30716098,0.88337561 7.30716098,1.95654634 L7.30716098,5.38177561 C7.30716098,6.45502439 6.43941463,7.32277073 5.36616585,7.32277073 Z M1.94093659,1.15738537 C1.50708293,1.15738537 1.14177561,1.52269268 1.14177561,1.95654634 L1.14177561,5.38177561 C1.14177561,5.8156878 1.50708293,6.18101463 1.94093659,6.18101463 L5.36616585,6.18101463 C5.80007805,6.18101463 6.16540488,5.8156878 6.16540488,5.38177561 L6.16540488,1.95654634 C6.16540488,1.52269268 5.80007805,1.15738537 5.36616585,1.15738537 L1.94093659,1.15738537 Z M14.0434537,7.32277073 L10.6182244,7.32277073 C9.54497561,7.32277073 8.67720976,6.45502439 8.67720976,5.38177561 L8.67720976,1.95654634 C8.67720976,0.88337561 9.54497561,0.0156097561 10.6182244,0.0156097561 L14.0434537,0.0156097561 C15.1166829,0.0156097561 15.9843707,0.88337561 15.9843707,1.95654634 L15.9843707,5.38177561 C15.9843707,6.45502439 15.1166829,7.32277073 14.0434537,7.32277073 Z M10.6182244,1.15738537 C10.1843707,1.15738537 9.81898537,1.52269268 9.81898537,1.95654634 L9.81898537,5.38177561 C9.81898537,5.8156878 10.1843707,6.18101463 10.6182244,6.18101463 L14.0434537,6.18101463 C14.4772878,6.18101463 14.8426927,5.8156878 14.8426927,5.38177561 L14.8426927,1.95654634 C14.8426927,1.52269268 14.4772878,1.15738537 14.0434537,1.15738537 L10.6182244,1.15738537 Z M5.36616585,15.9999805 L1.94093659,15.9999805 C0.867765854,15.9999805 0,15.1322927 0,14.0590634 L0,10.6338341 C0,9.56058537 0.867765854,8.69281951 1.94093659,8.69281951 L5.36616585,8.69281951 C6.43941463,8.69281951 7.30716098,9.56058537 7.30716098,10.6338341 L7.30716098,14.0590634 C7.30716098,15.1322927 6.43941463,15.9999805 5.36616585,15.9999805 Z M1.94093659,9.83459512 C1.50708293,9.83459512 1.14177561,10.1999805 1.14177561,10.6338341 L1.14177561,14.0590634 C1.14177561,14.4928976 1.50708293,14.8582829 1.94093659,14.8582829 L5.36616585,14.8582829 C5.80007805,14.8582829 6.16540488,14.4928976 6.16540488,14.0590634 L6.16540488,10.6338341 C6.16540488,10.1999805 5.80007805,9.83459512 5.36616585,9.83459512 L1.94093659,9.83459512 Z" id="Fill-3" fill="#FF9E2E" mask="url(#mask-2)"></path>
                </g>
                <path d="M12.3169951,15.9900878 C10.3075512,15.9900878 8.66341463,14.3459512 8.66341463,12.3365073 C8.66341463,10.3270634 10.3075512,8.68292683 12.3169951,8.68292683 C14.3264585,8.68292683 15.9705756,10.3270634 15.9705756,12.3365073 C15.9705756,14.3459512 14.3264585,15.9900878 12.3169951,15.9900878 Z M12.3169951,9.82470244 C10.924078,9.82470244 9.80519024,10.9435902 9.80519024,12.3365073 C9.80519024,13.7294244 10.924078,14.8483902 12.3169951,14.8483902 C13.7099122,14.8483902 14.8288976,13.7294244 14.8288976,12.3365073 C14.8288976,10.9435902 13.7099122,9.82470244 12.3169951,9.82470244 Z" id="Fill-5" fill="#D098FF"></path>
            </g>
        </g>
    </g>
</svg>