<?xml version="1.0" encoding="UTF-8"?>
<svg width="40px" height="40px" viewBox="0 0 40 40" version="1.1" xmlns="http://www.w3.org/2000/svg" xmlns:xlink="http://www.w3.org/1999/xlink">
    <!-- Generator: Sketch 50.2 (55047) - http://www.bohemiancoding.com/sketch -->
    <title>警告</title>
    <desc>Created with Sketch.</desc>
    <defs></defs>
    <g id="警告" stroke="none" stroke-width="1" fill="none" fill-rule="evenodd">
        <rect id="Rectangle-11" fill="#FFFFFF" opacity="0.0899999961" x="0" y="0" width="40" height="40"></rect>
        <path d="M21.0765156,6.48075728 L36.298493,31.5251398 C36.5853433,31.9970882 36.4352916,32.6122162 35.9633431,32.8990665 C35.8068047,32.9942105 35.6271394,33.0445282 35.4439547,33.0445282 L5,33.0445282 C4.44771525,33.0445282 4,32.5968129 4,32.0445282 C4,31.8613435 4.05031769,31.6816781 4.14546172,31.5251398 L19.3674391,6.48075728 C19.6542894,6.00880882 20.2694173,5.85875712 20.7413658,6.14560742 C20.8783261,6.2288519 20.9932711,6.34379699 21.0765156,6.48075728 Z M19,14 L19.5235282,25.0658422 L21.5130575,25.0658422 L22.0020692,14 L19,14 Z M20.5,30 C21.3284271,30 22,29.3284271 22,28.5 C22,27.6715729 21.3284271,27 20.5,27 C19.6715729,27 19,27.6715729 19,28.5 C19,29.3284271 19.6715729,30 20.5,30 Z" id="Combined-Shape" fill="#E90003"></path>
    </g>
</svg>