<?xml version="1.0" encoding="UTF-8"?>
<svg width="71px" height="71px" viewBox="0 0 71 71" version="1.1" xmlns="http://www.w3.org/2000/svg" xmlns:xlink="http://www.w3.org/1999/xlink">
    <!-- Generator: Sketch 50.2 (55047) - http://www.bohemiancoding.com/sketch -->
    <title>提醒</title>
    <desc>Created with Sketch.</desc>
    <defs></defs>
    <g id="Page-1" stroke="none" stroke-width="1" fill="none" fill-rule="evenodd" opacity="0.5">
        <g id="温馨提示" transform="translate(-153.000000, -182.000000)" fill="#000000" fill-rule="nonzero">
            <g id="提醒" transform="translate(152.000000, 181.000000)">
                <rect id="Rectangle-path" opacity="0" x="0" y="0" width="72" height="72"></rect>
                <path d="M36.4184236,71.1627907 C17.2605651,71.1627907 1.6744186,55.5766442 1.6744186,36.4187857 C1.6744186,17.2605651 17.2605651,1.6744186 36.4184236,1.6744186 C55.5762822,1.6744186 71.1627907,17.2605651 71.1627907,36.4187857 C71.1620667,55.5766442 55.5762822,71.1627907 36.4184236,71.1627907 Z M36.4184236,4.45692207 C18.7944536,4.45692207 4.45619803,18.7948156 4.45619803,36.4191477 C4.45619803,54.0434798 18.7944536,68.3813733 36.4184236,68.3813733 C54.0427557,68.3813733 68.3810113,54.0434798 68.3810113,36.4191477 C68.3810113,18.7948156 54.0423937,4.45692207 36.4184236,4.45692207 Z M34.4522805,46.5774937 L33.7962961,15.555078 L39.0398272,15.555078 L38.6032283,46.5774937 L34.4522805,46.5774937 Z M34.0153196,52.2579857 L38.8215277,52.2579857 L38.8215277,57.2828554 L34.0153196,57.2828554 L34.0153196,52.2579857 Z" id="Shape"></path>
            </g>
        </g>
    </g>
</svg>