<?xml version="1.0" encoding="UTF-8"?>
<svg width="15px" height="15px" viewBox="0 0 15 15" version="1.1" xmlns="http://www.w3.org/2000/svg" xmlns:xlink="http://www.w3.org/1999/xlink">
    <!-- Generator: Sketch 50.2 (55047) - http://www.bohemiancoding.com/sketch -->
    <title>Combined Shape</title>
    <desc>Created with Sketch.</desc>
    <defs></defs>
    <g id="Page-1" stroke="none" stroke-width="1" fill="none" fill-rule="evenodd">
        <g id="温馨提示" transform="translate(-132.000000, -559.000000)" fill="#757A84">
            <path d="M147,566.186185 L147,566.813841 C146.996449,566.836641 146.991919,566.859339 146.989526,566.882242 C146.962016,567.147355 146.949715,567.415042 146.905195,567.677247 C146.557938,569.720205 145.55258,571.363665 143.878545,572.585857 C142.791352,573.379627 141.567228,573.830232 140.227248,573.963741 C140.089622,573.977457 139.951661,573.987982 139.813829,574 L139.186146,574 C139.167463,573.996655 139.148934,573.992074 139.130122,573.990144 C138.860763,573.962402 138.588726,573.950307 138.322352,573.905041 C136.279365,573.557836 134.635979,572.5523 133.413888,570.87819 C132.620168,569.790999 132.16964,568.5668 132.036208,567.226823 C132.022517,567.089325 132.011992,566.951493 132,566.813841 L132,566.186159 C132.003526,566.163359 132.008055,566.140661 132.010448,566.117784 C132.037958,565.852645 132.050233,565.584958 132.094805,565.322753 C132.442062,563.279795 133.44742,561.636335 135.121455,560.414117 C136.208622,559.620373 137.432746,559.169742 138.772752,559.036234 C138.910378,559.022517 139.048365,559.011992 139.186171,559 L139.813854,559 C139.832537,559.003345 139.851092,559.0079 139.869878,559.009856 C140.139263,559.037623 140.411274,559.049667 140.677674,559.094933 C142.72066,559.442138 144.364021,560.4477 145.586138,562.121784 C146.379832,563.209001 146.830386,564.433174 146.963792,565.773152 C146.977483,565.910701 146.988008,566.048533 147,566.186185 Z M139.499942,572.928571 C143.042737,572.928571 145.926183,570.051576 145.92857,566.514397 C145.930986,562.958407 143.059276,560.073789 139.51441,560.07143 C135.95591,560.069043 133.072522,562.942759 133.071429,566.492738 C133.070365,570.047376 135.948258,572.928543 139.499942,572.928571 Z M139.5,571.272727 C139.123437,571.272727 138.818182,570.967472 138.818182,570.590909 C138.818182,570.214347 139.123437,569.909091 139.5,569.909091 C139.876562,569.909091 140.181818,570.214347 140.181818,570.590909 C140.181818,570.967472 139.876562,571.272727 139.5,571.272727 Z M141.009822,566.40943 C140.535277,566.87497 140.045455,567.355476 140.045455,567.787844 L140.045455,568.692169 C140.045455,568.987709 139.801236,569.227273 139.5,569.227273 C139.198764,569.227273 138.954545,568.987709 138.954545,568.692169 L138.954545,567.787844 C138.954545,566.912427 139.636364,566.243547 140.238537,565.65278 C140.680355,565.220413 141.136364,564.773078 141.136364,564.415625 C141.136364,563.524134 140.402173,562.798546 139.5,562.798546 C138.58255,562.798546 137.863636,563.493115 137.863636,564.379234 C137.863636,564.674774 137.619439,564.914337 137.318182,564.914337 C137.016946,564.914337 136.772727,564.674774 136.772727,564.379234 C136.772727,562.917335 137.996719,561.727273 139.5,561.727273 C141.004368,561.727273 142.227273,562.933388 142.227273,564.415625 C142.227273,565.216148 141.607628,565.822948 141.009822,566.410496 L141.009822,566.40943 Z" id="Combined-Shape"></path>
        </g>
    </g>
</svg>