<?xml version="1.0" encoding="UTF-8"?>
<svg width="24px" height="24px" viewBox="0 0 24 24" version="1.1" xmlns="http://www.w3.org/2000/svg" xmlns:xlink="http://www.w3.org/1999/xlink">
    <!-- Generator: Sketch 50.2 (55047) - http://www.bohemiancoding.com/sketch -->
    <title>提示图标/1</title>
    <desc>Created with Sketch.</desc>
    <defs></defs>
    <g id="提示图标/1" stroke="none" stroke-width="1" fill="none" fill-rule="evenodd">
        <path d="M12,20 C7.581722,20 4,16.418278 4,12 C4,7.581722 7.581722,4 12,4 C16.418278,4 20,7.581722 20,12 C20,16.418278 16.418278,20 12,20 Z M11.25,18 L12.75,18 L12.75,10 L11.25,10 L11.25,18 Z M11,8.00997067 C11,8.26920821 11.0973607,8.50029326 11.2920821,8.69970674 C11.4868035,8.90146628 11.7225806,9.00117302 12.0005865,9.00117302 C12.2774194,9.00117302 12.5131965,8.90381232 12.7079179,8.70909091 C12.9038123,8.5143695 13,8.27859238 13,8.00058651 C13,7.72375367 12.9038123,7.48797654 12.7079179,7.29325513 C12.5131965,7.0973607 12.2774194,7 12.0005865,7 C11.7225806,7 11.4868035,7.10087977 11.2920821,7.30146628 C11.0973607,7.50205279 11,7.73900293 11,8.00997067 Z" id="Combined-Shape" fill="#B3B3B3"></path>
    </g>
</svg>