<?xml version="1.0" encoding="UTF-8"?>
<svg width="16px" height="16px" viewBox="0 0 16 16" version="1.1" xmlns="http://www.w3.org/2000/svg" xmlns:xlink="http://www.w3.org/1999/xlink">
    <!-- Generator: Sketch 50.2 (55047) - http://www.bohemiancoding.com/sketch -->
    <title>音乐套餐</title>
    <desc>Created with Sketch.</desc>
    <defs></defs>
    <g id="Page-1" stroke="none" stroke-width="1" fill="none" fill-rule="evenodd">
        <g id="充值列表3" transform="translate(-146.000000, -76.000000)">
            <g id="音乐套餐" transform="translate(146.000000, 76.000000)">
                <path d="M0,5.25198049 C0,8.15258537 2.23854424,10.504039 4.99996285,10.504039 C7.76138145,10.504039 10,8.15258537 10,5.25198049 C10,2.35137561 7.76138145,0 4.99996285,0 C2.23854424,0 0,2.35137561 0,5.25198049 Z" id="Fill-1" fill="#FFD5BC"></path>
                <g id="Group-4" fill="#FF9E2E">
                    <path d="M14.8658446,4.73178947 C13.7256341,2.03129825 11.1572732,0.206877193 8.23181955,0.0196892231 C5.30646617,-0.167558897 2.52639599,1.31442607 1.05122807,3.84753885 C-0.42402005,6.38067168 -0.341092732,9.52996491 1.26542356,11.9819549 L1.26542356,13.9125614 C1.26542356,15.0577644 2.20254637,16.0099048 3.34782957,15.9993383 C3.97932832,15.9952682 4.57369424,15.7002306 4.95887719,15.1997594 C5.3204812,14.7280401 5.44471178,14.1161103 5.29573935,13.5406917 C5.20621554,13.19599 5.10784962,12.5943459 5.10784962,12.3904762 C5.10784962,12.1866065 5.20505263,11.5851028 5.29519799,11.2407218 C5.44423058,10.6653835 5.31993985,10.0534536 4.95841604,9.58173434 C4.54855138,9.05227068 3.90710777,8.75480702 3.23825564,8.7839599 C2.56938346,8.81309273 1.95629073,9.16513283 1.59398496,9.72818045 C1.25854637,8.688401 1.18899248,7.56276692 1.41353383,6.43033584 C1.87390476,4.10913283 4.17465664,1.8397995 6.50079198,1.40543358 C10.6004812,0.639839599 14.1914185,3.78019048 14.1914185,7.744 C14.1920401,8.41756391 14.0872581,9.08713784 13.8808822,9.72834085 C13.5185564,9.16537343 12.9054637,8.81331328 12.2366115,8.78426065 C11.5678195,8.75512782 10.9264561,9.05251128 10.5166115,9.58187469 C10.1549875,10.053614 10.0307769,10.6655238 10.1797494,11.2408822 C10.2692732,11.5855639 10.3675589,12.1872281 10.3675589,12.3910977 C10.3675589,12.5949674 10.2692732,13.1966316 10.1797494,13.5413935 C10.0307769,14.1167318 10.1549875,14.7286617 10.5166115,15.200381 C10.9060251,15.7063459 11.5089323,16.002005 12.1474085,15.9999599 C12.6944762,15.9999599 13.2191479,15.7825363 13.6059749,15.3956291 C13.9927218,15.0087419 14.209985,14.48399 14.2098246,13.9369223 L14.2098246,11.9825764 C15.6210125,9.82554386 15.8669273,7.10780952 14.8658446,4.73249123 L14.8658446,4.73178947 Z M2.54863158,10.8570226 C2.54863158,10.4361303 2.87735338,10.0818045 3.29792481,10.0656642 C3.55027569,10.0550175 3.79206015,10.1677995 3.94610526,10.368 C4.06516291,10.5250927 4.10526316,10.7282607 4.05481704,10.918817 C3.96114286,11.2794185 3.82566416,12.0114687 3.82566416,12.3921203 C3.82566416,12.7727519 3.96114286,13.5048221 4.05481704,13.8654035 C4.10542356,14.0561203 4.06532331,14.2594286 3.94610526,14.4167018 C3.79855639,14.6082005 3.57016541,14.7201203 3.328401,14.7191779 C2.89748371,14.7191779 2.54817043,14.3698647 2.54817043,13.9390276 L2.54863158,10.8570226 Z M12.9266165,13.9271178 C12.9266165,14.34801 12.5979749,14.7023358 12.1774035,14.7185564 C11.9251328,14.7292832 11.6834286,14.6166617 11.5293634,14.4167018 C11.4103258,14.259589 11.3702256,14.0564211 11.4205915,13.8658847 C11.5142456,13.5052832 11.6498246,12.773213 11.6498246,12.3925815 C11.6498246,12.0119499 11.5142456,11.2798797 11.4205915,10.9192982 C11.3702256,10.7287419 11.4103258,10.5255739 11.5293634,10.3684612 C11.6833484,10.1682807 11.925213,10.0554987 12.1775439,10.0661454 C12.5981353,10.0821253 12.9267769,10.4366717 12.9267769,10.8575639 L12.9266165,13.9271178 Z" id="Fill-3"></path>
                </g>
                <path d="M6.85573935,10.4735639 C6.52435088,10.493614 6.25391479,10.7935038 6.25391479,11.125594 L6.25391479,13.6586466 C6.25391479,13.9906366 6.52421053,14.2906065 6.85573935,14.3106566 C7.03250125,14.3216241 7.20591479,14.2590476 7.33497744,14.1378045 C7.46397995,14.0164812 7.53720301,13.8472381 7.53712281,13.6701554 L7.53712281,11.114005 C7.53720301,10.9369223 7.46397995,10.7676591 7.33497744,10.646416 C7.20591479,10.5250927 7.03250125,10.4625163 6.85573935,10.4735639 Z M8.57205013,10.9539048 C8.2406817,10.9739549 7.97024561,11.2739248 7.97024561,11.6059348 L7.97024561,13.1779048 C7.97024561,13.5099148 8.2405213,13.8098847 8.57205013,13.8299348 C8.74883208,13.8408822 8.92222556,13.7783058 9.05130827,13.6570627 C9.18029073,13.5357594 9.25345363,13.3664962 9.25345363,13.1894135 L9.25345363,11.5936241 C9.25321303,11.4166216 9.17998997,11.247619 9.05098747,11.1265363 C8.92198496,11.0054336 8.74867168,10.9429373 8.57205013,10.9539048 Z" id="Fill-6" fill="#D098FF"></path>
            </g>
        </g>
    </g>
</svg>