<?xml version="1.0" encoding="UTF-8"?>
<svg width="16px" height="16px" viewBox="0 0 16 16" version="1.1" xmlns="http://www.w3.org/2000/svg" xmlns:xlink="http://www.w3.org/1999/xlink">
    <!-- Generator: Sketch 50.2 (55047) - http://www.bohemiancoding.com/sketch -->
    <title>视频套餐</title>
    <desc>Created with Sketch.</desc>
    <defs>
        <polygon id="path-1" points="0.00117073171 0.0156097561 15.9843707 0.0156097561 15.9843707 15.9999805 0.00117073171 15.9999805"></polygon>
    </defs>
    <g id="Page-1" stroke="none" stroke-width="1" fill="none" fill-rule="evenodd">
        <g id="充值列表3" transform="translate(-146.000000, -380.000000)">
            <g id="视频套餐" transform="translate(146.000000, 380.000000)">
                <g id="Group-4">
                    <mask id="mask-2" fill="white">
                        <use xlink:href="#path-1"></use>
                    </mask>
                    <g id="Clip-2"></g>
                    <path d="M0,5.26759024 C0,8.16819512 2.35137561,10.5196488 5.25198049,10.5196488 C8.15258537,10.5196488 10.504039,8.16819512 10.504039,5.26759024 C10.504039,2.36698537 8.15258537,0.0156097561 5.25198049,0.0156097561 C2.35137561,0.0156097561 0,2.36698537 0,5.26759024 Z" id="Fill-1" fill="#8CF6FB" mask="url(#mask-2)"></path>
                    <path d="M7.99223415,15.9999805 C3.58505366,15.9999805 0,12.4149268 0,8.0078439 C0,3.60066341 3.58505366,0.0156097561 7.99223415,0.0156097561 C12.3993171,0.0156097561 15.9843707,3.60066341 15.9843707,8.0078439 C15.9843707,12.4149268 12.3993171,15.9999805 7.99223415,15.9999805 Z M7.99223415,1.15738537 C4.2016,1.15738537 1.14177561,4.21720976 1.14177561,8.0078439 C1.14177561,11.7983805 4.2016,14.8582829 7.99223415,14.8582829 C11.7827707,14.8582829 14.8426927,11.7983805 14.8426927,8.0078439 C14.8426927,4.21720976 11.7827707,1.15738537 7.99223415,1.15738537 Z" id="Fill-3" fill="#3C2DCB" mask="url(#mask-2)"></path>
                </g>
                <path d="M7.14592285,6.77563363 L9.12636916,8.00000987 L7.14592285,9.22428742 L7.14592285,6.77563363 Z M6.2938571,4.76595745 C6.01752262,4.76595745 5.78723404,4.99688505 5.78723404,5.27416004 L5.78723404,10.72584 C5.78723404,11.003036 6.01752262,11.2340426 6.2938571,11.2340426 C6.38600795,11.2340426 6.47809976,11.2109281 6.57027029,11.1647386 L10.991681,8.43888879 C11.2219696,8.30024142 11.3141401,7.97687566 11.1529401,7.74586909 C11.1068352,7.67654541 11.0607892,7.60730068 10.991681,7.58416647 L6.57027029,4.83520217 C6.47809976,4.7890127 6.38600795,4.76595745 6.2938571,4.76595745 Z" id="Fill-5" fill="#D098FF"></path>
            </g>
        </g>
    </g>
</svg>