<?xml version="1.0" encoding="UTF-8"?>
<svg width="15px" height="16px" viewBox="0 0 15 16" version="1.1" xmlns="http://www.w3.org/2000/svg" xmlns:xlink="http://www.w3.org/1999/xlink">
    <!-- Generator: Sketch 50.2 (55047) - http://www.bohemiancoding.com/sketch -->
    <title>不限量套餐</title>
    <desc>Created with Sketch.</desc>
    <defs>
        <polygon id="path-1" points="0.00117073171 0.0153365854 14.569522 0.0153365854 14.569522 15.9999805 0.00117073171 15.9999805"></polygon>
    </defs>
    <g id="Page-1" stroke="none" stroke-width="1" fill="none" fill-rule="evenodd">
        <g id="充值列表2" transform="translate(-137.000000, -76.000000)">
            <g id="不限量套餐" transform="translate(137.000000, 76.000000)">
                <g id="Group-4">
                    <mask id="mask-2" fill="white">
                        <use xlink:href="#path-1"></use>
                    </mask>
                    <g id="Clip-2"></g>
                    <path d="M0.0454243902,5.24337561 C0.0453463415,7.11112195 1.04177561,8.83705366 2.65921951,9.77096585 C4.27676098,10.704878 6.26965854,10.704878 7.88712195,9.77096585 C9.5046439,8.83705366 10.5010732,7.11112195 10.5009171,5.24337561 C10.5010732,3.37560976 9.5046439,1.64969756 7.88712195,0.715785366 C6.26965854,-0.218146341 4.27676098,-0.218146341 2.65921951,0.715785366 C1.04177561,1.64969756 0.0453463415,3.37560976 0.0454243902,5.24337561 Z" id="Fill-1" fill="#FFD5BC" mask="url(#mask-2)"></path>
                    <path d="M13.6148683,12.7212683 L8.20526829,15.7442927 C7.61432195,16.0852098 6.90967805,16.0852098 6.31875122,15.7442927 L0.931941463,12.7212683 C0.36364878,12.3803317 0,11.7666927 0,11.084761 L0,4.9932878 C0,4.33414634 0.340936585,3.72050732 0.931941463,3.37957073 L6.34146341,0.356565854 C6.93246829,0.0156292683 7.63703415,0.0156292683 8.22805854,0.356565854 L13.6375805,3.37957073 C14.2057951,3.72050732 14.569522,4.33414634 14.569522,4.9932878 L14.569522,11.084761 C14.5467902,11.7666927 14.1830829,12.3803317 13.6148683,12.7212683 Z M13.3875707,4.9932878 C13.3875707,4.74329756 13.2512195,4.4932878 13.0239415,4.37964878 L7.63703415,1.3339122 C7.4097561,1.19756098 7.13703415,1.19756098 6.90967805,1.3339122 L1.5001561,4.37964878 C1.27285854,4.516 1.13642927,4.74329756 1.13642927,4.9932878 L1.13642927,11.084761 C1.13642927,11.3348293 1.27285854,11.584839 1.5001561,11.7211902 L6.90967805,14.7442146 C7.13703415,14.8805659 7.4097561,14.8805659 7.63703415,14.7442146 L13.0466537,11.7211902 C13.2739317,11.584839 13.4102829,11.3575415 13.4102829,11.084761 L13.4102829,4.9932878 L13.3875707,4.9932878 Z" id="Fill-3" fill="#FF9E2E" mask="url(#mask-2)"></path>
                </g>
                <path d="M7.32554146,10.9242537 C5.68903415,10.9242537 4.37073171,9.60595122 4.37073171,7.9694439 C4.37073171,6.33293659 5.68903415,5.01463415 7.32554146,5.01463415 C8.96204878,5.01463415 10.2803317,6.33293659 10.2803317,7.9694439 C10.2803317,9.60595122 8.96204878,10.9242537 7.32554146,10.9242537 Z M7.32554146,6.15108293 C6.32546341,6.15108293 5.50716098,6.96936585 5.50716098,7.9694439 C5.50716098,8.96952195 6.32546341,9.78772683 7.32554146,9.78772683 C8.32561951,9.78772683 9.14390244,8.96952195 9.14390244,7.9694439 C9.14390244,6.96936585 8.34840976,6.15108293 7.32554146,6.15108293 Z" id="Fill-5" fill="#D098FF"></path>
            </g>
        </g>
    </g>
</svg>