<?xml version="1.0" encoding="UTF-8"?>
<svg width="80px" height="24px" viewBox="0 0 80 24" version="1.1" xmlns="http://www.w3.org/2000/svg" xmlns:xlink="http://www.w3.org/1999/xlink">
    <!-- Generator: Sketch 50.2 (55047) - http://www.bohemiancoding.com/sketch -->
    <title>中国电信</title>
    <desc>Created with Sketch.</desc>
    <defs>
        <polygon id="path-1" points="0 11.0488746 0 0.0741416717 20.2994819 0.0741416717 20.2994819 11.0488746 1.94015944e-15 11.0488746"></polygon>
        <polygon id="path-3" points="46.8951852 19.102774 46.8951852 0.374564195 0.11207748 0.374564195 0.11207748 19.102774 46.8951852 19.102774"></polygon>
    </defs>
    <g id="中国电信" stroke="none" stroke-width="1" fill="none" fill-rule="evenodd">
        <g id="Page-1" transform="translate(0.000000, 2.000000)">
            <path d="M5.86884444,10.0313118 C5.86884444,4.67148401 7.90957351,0.31595452 10.4196892,0.31595452 C11.6898682,0.31595452 12.829627,1.42862125 13.663812,3.21733067 L12.8258467,3.4384779 C12.5782374,3.19023855 12.2997557,3.0497376 12.0149735,3.0497376 C11.2941973,3.0497376 10.7013211,3.92109552 10.2917892,5.24734889 C9.91690997,6.44003186 9.68631199,8.1417945 9.68631199,10.0313118 C9.68631199,13.6427533 10.5438088,16.577522 11.5959908,16.577522 C12.3766217,16.577522 13.0501442,15.0030293 13.3450072,12.7310722 L14.8401137,12.3366615 C14.3537158,16.5976836 12.5580758,19.7403685 10.4196892,19.7403685 C7.90957351,19.7403685 5.86884444,15.3848391 5.86884444,10.0313118" id="Fill-1" fill="#FFFFFF"></path>
            <g id="Group-5" transform="translate(0.000000, 0.067541)">
                <mask id="mask-2" fill="white">
                    <use xlink:href="#path-1"></use>
                </mask>
                <g id="Clip-4"></g>
                <path d="M0.0748552099,7.9865025 C-0.498489479,5.69501389 2.2762468,2.96816135 6.52907828,1.34704499 L6.74707527,2.17177928 C4.25712119,3.22963173 2.67128759,4.74300969 2.9768614,5.98357639 C3.37820269,7.57760063 6.77038709,8.10054139 10.5702133,7.15609778 C14.364369,6.21795465 17.1151634,4.14761328 16.7163423,2.55232894 C16.545599,1.84919413 15.7813494,1.35964598 14.6655325,1.10573619 L14.3675192,0 C17.4742914,0.140500951 19.7834214,1.20654404 20.2257159,2.97509189 C20.8954581,5.66855183 16.9343393,8.98576039 11.3710057,10.3649379 C5.8083021,11.752306 0.748377707,10.6938235 0.0748552099,7.9865025" id="Fill-3" fill="#FFFFFF" mask="url(#mask-2)"></path>
            </g>
            <g id="Group-8" transform="translate(24.571915, 0.208909)">
                <mask id="mask-4" fill="white">
                    <use xlink:href="#path-3"></use>
                </mask>
                <g id="Clip-7"></g>
                <path d="M46.8604065,2.80025326 C46.6921834,2.59989765 46.2435884,2.70637595 45.9984993,2.69944541 C45.776722,2.68621437 45.5530546,2.64589123 45.3545891,2.69944541 C45.2714226,2.70637595 45.1170606,2.67298334 45.1208409,2.57217549 C45.1208409,2.51295087 45.1573838,2.46506714 45.147303,2.40521247 C45.1378522,2.33149673 45.0905986,2.12421057 45.1006793,2.09711846 C45.0868183,2.06372586 45.1378522,1.80855597 45.0868183,1.7153087 C45.0225532,1.63529246 44.9154449,1.54771564 44.8423592,1.52755406 C44.7850247,1.51432303 44.7421814,1.51432303 44.6911474,1.49416146 L44.5141036,1.36689154 C44.4536189,1.34672997 44.4000647,1.34042948 44.33958,1.30640683 C44.2696446,1.27994476 44.1820677,1.25285265 44.1184328,1.21946005 C44.0850402,1.19299799 43.8840545,1.09849062 43.8172693,1.06509802 C43.7189816,1.03863596 43.6427457,0.998312813 43.5350073,0.985081781 C43.4883837,0.998312813 43.4348295,0.998312813 43.3919862,1.02540492 C43.338432,1.06509802 43.1935207,1.35366051 43.1702089,1.44060729 C43.1702089,1.44060729 43.1664286,1.45446837 43.1563478,1.45446837 C43.1059439,1.45446837 43.0631005,1.42737626 43.0189971,1.4343068 C42.9421311,1.4343068 42.7776883,1.56787721 42.838173,1.5344846 L42.8551843,1.56787721 C42.8312424,1.56787721 42.7915494,1.59496932 42.7644572,1.60820035 C42.6100952,1.6819161 42.248447,2.0297032 42.4425021,1.94968697 C42.4425021,1.95598746 42.4689642,1.96984854 42.4765248,1.96984854 C42.4425021,1.97614903 42.4191903,2.00324114 42.3996588,2.01710222 C42.2856199,2.0706564 42.170951,2.13681155 42.0405308,2.15760317 C42.0405308,2.19729627 42.003988,2.21682779 41.9976875,2.25085044 C42.0272998,2.25085044 42.0405308,2.30440462 42.094085,2.30440462 C42.2188347,2.29054353 42.4191903,2.19729627 42.4292711,2.06372586 C42.4803051,2.0706564 42.5136977,2.0706564 42.5697721,2.09711846 L42.6636494,2.06372586 C42.7644572,2.03726379 42.9956853,1.99001011 43.0927128,2.03726379 C43.1059439,2.12421057 42.7776883,2.11728003 42.7008223,2.09711846 C42.7008223,2.11728003 42.4803051,2.21115735 42.4803051,2.21115735 C42.4765248,2.24454995 42.5874134,2.26471152 42.6100952,2.28424304 C42.7373651,2.3182657 42.902438,2.31070511 43.0460892,2.33149673 C43.2439246,2.35795879 43.5287068,2.61312868 43.6156536,2.78009169 C43.6118733,2.8071838 43.5488684,2.86766852 43.4348295,2.9880079 L43.287398,3.0547931 L43.1059439,3.08881576 C42.9824542,3.08881576 42.5231484,3.21608568 42.4601435,3.20915514 C42.3694165,3.21608568 42.0272998,3.24947828 41.952954,3.25640882 C41.8332447,3.26963985 41.658091,3.33012456 41.5484625,3.37044771 C41.491128,3.39060928 41.2529694,3.41707134 41.1490113,3.43030237 C41.0456833,3.43723291 40.8472178,3.43723291 40.7174277,3.47062552 C40.6096893,3.51094866 40.3412884,3.5846644 40.3412884,3.5846644 C40.3412884,3.59789544 40.1636145,3.68484221 40.1377825,3.70563383 C40.1377825,3.71193432 40.1176209,3.70563383 40.1006096,3.70563383 C40.0936791,3.67161118 40.0596564,3.63128804 40.0596564,3.63128804 C40.0231136,3.63128804 39.9859407,3.71193432 39.9664092,3.7320959 C39.9191555,3.7988811 39.9292363,3.83920424 39.9292363,3.92678107 C39.9191555,4.18132091 40.0596564,4.14666821 40.2411106,4.21471351 C40.3179766,4.24747607 40.3910623,4.28086867 40.4754888,4.2940997 C40.6229203,4.30796078 40.8377671,4.19455194 40.965037,4.14666821 C41.1395606,4.08744359 41.3002231,4.08744359 41.4772669,4.04712045 L41.952954,3.91291999 C42.1948928,3.85243528 42.4689642,3.80581164 42.7241341,3.7988811 C43.0460892,3.7988811 43.4480605,3.7988811 43.7800964,3.77241904 C43.8739737,3.7654885 44.7957356,3.77241904 44.8921331,3.77241904 C45.0036518,3.77241904 45.1038296,3.75855796 45.2140882,3.75855796 C45.3747507,3.75855796 45.776722,3.65838015 45.8416171,3.65144961 C45.9651067,3.64514912 46.0722151,3.72516536 46.1957047,3.70563383 C46.2435884,3.69870329 46.4609554,3.61805701 46.4911977,3.62498755 C46.5176598,3.61805701 46.5176598,3.53804077 46.5245903,3.51094866 C46.5479021,3.41707134 46.4741864,3.32319402 46.5245903,3.24947828 C46.5510524,3.20222459 46.6216179,3.18206302 46.6650913,3.15560096 C46.7866908,3.08881576 46.9731853,2.94138426 46.8604065,2.80025326 Z M40.0098825,6.52636369 C39.9796402,6.47280952 39.9191555,6.46587898 39.8889131,6.42555584 L39.7755043,6.30521646 C39.708089,6.26489331 39.631223,6.24473174 39.5612876,6.2044086 C39.4466186,6.15085442 39.3395103,6.05004657 39.2090901,6.04374608 C39.1252936,6.02988499 39.0515778,6.07713868 38.9677813,6.09036971 C38.9677813,5.92277665 39.0679591,5.80873776 39.1120626,5.66823681 C39.1486054,5.54726738 39.1215133,5.41999746 39.1252936,5.30595857 C39.1252936,5.22594233 39.181998,5.1793187 39.181998,5.09930246 C39.2090901,4.69040059 38.9274582,4.33568294 38.7800267,4.00049682 L38.7529346,3.84613478 C38.7226922,3.74532693 38.6829991,3.61805701 38.6256646,3.51724915 C38.5651799,3.4101408 38.4719327,3.29673196 38.3408825,3.27657039 C38.2911086,3.3433556 38.2640165,3.41707134 38.2570859,3.51094866 L38.2570859,3.61805701 C38.207312,3.7988811 38.1096544,4.04018991 38.1096544,4.27456818 C38.0296382,4.34828392 37.8853569,4.64314691 37.8689757,4.69040059 L37.8280225,4.81704046 L37.7511565,4.97140249 C37.6875215,5.12513447 37.6270368,5.285797 37.5501708,5.43322849 L37.2647586,6.00342293 L37.2017537,6.171016 L37.013999,6.39216323 C36.9503641,6.47280952 36.9169715,6.53959472 36.8797986,6.6265415 L36.7153558,6.83445771 C36.6655819,6.91447394 36.6523508,7.01465175 36.6252587,7.12239015 C36.5950164,7.21563742 36.5477627,7.31581523 36.5376819,7.42292357 L36.551543,7.71148607 C36.551543,7.85198702 36.5011391,8.01958008 36.5748548,8.14748005 C36.5987967,8.18717314 36.6353395,8.19410368 36.6655819,8.22056575 C36.7355173,8.26781943 36.7720602,8.32830414 36.796002,8.39508935 C36.846406,8.51605878 36.8224641,8.66349027 36.8130134,8.79769073 L36.8224641,9.00497689 L36.796002,9.21226304 C36.8130134,9.17256995 36.846406,9.15303843 36.8665675,9.12594631 L36.9068907,8.95835325 L36.9068907,8.94512222 L36.9333527,8.94512222 C36.9333527,8.95205276 36.937133,8.95205276 36.9503641,8.95835325 C36.9503641,8.99867639 36.9333527,9.032069 36.9169715,9.05223057 L36.9333527,9.09255371 L36.9667453,9.09255371 C36.9667453,9.03899954 37.0209296,9.00497689 37.0303803,8.97158428 C37.0744837,8.8512449 37.0744837,8.73027547 37.1513497,8.62316713 L37.3523354,8.40201989 L37.4663743,8.3213736 C37.5734826,8.22749629 37.66736,8.1134574 37.7851791,8.00634905 L37.9622229,7.85198702 C38.0264879,7.78520181 38.1764396,7.57791565 38.2438549,7.55775408 C38.4183785,7.5105004 38.5651799,7.67116292 38.6055031,7.81229392 L38.6590573,8.08699533 C38.6792188,8.27474997 38.7226922,8.4625046 38.7163917,8.67042081 C38.7031607,8.75736759 38.7466341,9.21982363 38.7226922,9.38741669 C38.7163917,9.52791765 38.6590573,9.66904865 38.6256646,9.80198901 C38.6187341,9.84861264 38.5550991,10.4723613 38.5450184,10.559308 C38.5217065,10.6065617 38.4517711,10.827709 38.4316095,10.9014247 C38.4145982,11.0148335 38.3037096,11.585028 38.2911086,11.7721526 L38.2640165,12.0071609 L38.2640165,12.4015716 L38.2570859,12.7228967 C38.270947,12.9509745 38.4183785,13.1456596 38.642676,13.1588907 C38.642676,13.0782444 38.7636454,12.9982281 38.8203498,12.9509745 C38.8298006,12.9912976 39.1120626,12.9642055 38.9910931,12.8237045 L38.9910931,12.6769031 C39.028266,12.5288416 39.2727251,12.5496332 39.2727251,12.5496332 C39.2727251,12.482848 39.4333876,12.3347864 39.46363,12.2472096 C39.5108836,12.1281303 39.5335654,11.751991 39.5474265,11.6719748 L39.5877496,11.2498419 C39.5877496,11.1024104 39.5707383,10.9883715 39.5908999,10.84094 C39.6148417,10.699809 39.6350033,10.546077 39.6545348,10.418177 C39.6646156,10.2978377 39.7446319,9.65518757 39.7654235,9.55437971 C39.7818048,9.49389499 39.8252782,9.09255371 39.835989,9.05223057 C39.8422895,8.95205276 39.8523703,8.4625046 39.8656013,8.39508935 C39.8889131,8.22749629 39.8958437,8.05297268 39.9090747,7.89231016 C39.9191555,7.71148607 39.8523703,7.5105004 39.8756821,7.34353739 C39.8889131,7.24903002 39.9563284,7.17531427 39.9859407,7.0883675 C40.0331944,6.96802812 40.0432751,6.80736559 40.0432751,6.66623459 C40.0432751,6.61331047 40.0331944,6.5597563 40.0098825,6.52636369 Z M45.3545891,4.76348629 C45.3079655,4.69607103 45.1869961,4.69607103 45.1170606,4.66330848 C45.0534257,4.61731489 45.0137326,4.56250062 44.9658488,4.51650704 C44.8990636,4.46295286 44.7283203,4.39490756 44.6508243,4.4352307 C44.5607273,4.46295286 44.4838613,4.4352307 44.4170761,4.4352307 C44.33958,4.4352307 44.095751,4.38860707 44.0377865,4.3684455 C43.8872048,4.34828392 43.7164614,4.34828392 43.5658797,4.36151495 L43.1601281,4.48248438 C43.1059439,4.48878487 43.0568,4.50894645 43.0297079,4.53603856 C42.9421311,4.54989964 42.851404,4.57573165 42.7915494,4.62361538 C42.7109031,4.64314691 42.6938917,4.67590946 42.6680597,4.73639417 C42.5767026,4.9304493 42.7474459,5.11253349 42.9251198,5.15852708 C42.9956853,5.1793187 43.3441024,5.36644328 43.4146679,5.39983589 L43.5287068,5.52710581 L43.6490462,5.58129003 C43.7933274,5.64807523 44.1751372,5.82259884 44.1990791,5.82259884 L44.5103233,5.90261507 L44.9834902,5.91647616 C45.0868183,5.92970719 45.147303,6.0235845 45.2714226,5.94293822 C45.3653,5.91647616 45.4585472,5.64807523 45.4995004,5.60082155 C45.532263,5.56112846 45.5530546,5.51387477 45.5958979,5.48048217 C45.5801467,5.44015903 45.609129,5.19948027 45.6192098,5.15852708 C45.6299206,5.05141873 45.532263,5.05141873 45.4585472,5.01802613 C45.4188541,4.99156406 45.3949123,4.80317938 45.3545891,4.76348629 Z M42.5067672,6.4123248 C42.4191903,6.4123248 42.2081239,6.47280952 42.1986731,6.47280952 L42.170951,6.55282575 C42.1476392,6.59944939 42.1545697,6.66623459 42.170951,6.71285823 C42.1986731,6.80736559 42.4223406,7.13625123 42.4960563,7.21563742 C42.5697721,7.26919159 42.7915494,7.46324672 42.838173,7.5105004 C42.902438,7.56405457 43.0234074,7.61193831 43.1059439,7.63777032 C43.2199827,7.67116292 43.3611137,7.63777032 43.4915339,7.65793189 C43.5287068,7.65793189 43.7467038,7.69888508 43.813489,7.71148607 C43.9640707,7.7247171 44.0680288,7.85198702 44.2255411,7.89231016 C44.313118,7.8992407 44.4132958,7.85891756 44.4970923,7.85198702 C44.5607273,7.84568653 44.6281425,7.8658481 44.6911474,7.84568653 C44.7648632,7.81859441 44.8158971,7.77197078 44.8820523,7.75180921 C44.9500976,7.7247171 45.019403,7.7247171 45.0868183,7.69888508 C45.211568,7.63146983 45.3949123,7.34353739 45.3949123,7.19547585 C45.4081433,7.12806059 45.3653,7.04930445 45.4188541,6.98125915 C45.4415359,6.93463551 45.4919398,6.88801188 45.532263,6.86785031 C45.5801467,6.8407582 45.6400014,6.8407582 45.660793,6.80736559 C45.6897753,6.71978877 45.6299206,6.61331047 45.660793,6.53329423 C45.660793,6.47280952 45.3048152,6.40539426 45.2310995,6.44571741 C45.1378522,6.44571741 45.0370444,6.47911001 44.9500976,6.47280952 C44.7018583,6.4123248 44.4737805,6.33167852 44.2324717,6.30521646 C44.095751,6.28505488 43.9640707,6.28505488 43.8235698,6.28505488 C43.8172693,6.29135537 43.1563478,6.31151695 42.9559922,6.3455396 L42.838173,6.36507112 C42.7707577,6.36507112 42.5401598,6.39216323 42.5067672,6.4123248 Z M46.3903899,11.8326373 C46.3569973,11.7721526 46.2568195,11.751991 46.2032653,11.7318294 C46.1793234,11.7318294 46.1793234,11.7255289 46.1768032,11.7053674 C46.122619,11.61149 46.0552037,11.6051896 45.968257,11.5447048 C45.9417949,11.5447048 45.9550259,11.4105044 45.9581762,11.3972734 C45.9915688,11.2498419 46.2032653,10.7338316 46.225947,10.6260932 C46.2435884,10.5126844 46.2801313,10.3116987 46.2530392,10.2039603 C46.2435884,10.1781283 46.2530392,9.95572099 46.2700505,9.89649637 C46.2996628,9.83538161 46.2700505,9.60163339 46.2700505,9.53421814 C46.26375,9.49389499 46.0923766,9.31370095 46.0552037,9.28030835 C45.9783377,9.21982363 45.8617787,8.94512222 45.8416171,8.92496065 C45.776722,8.83738382 45.660793,8.77752916 45.5757364,8.72397498 C45.5158817,8.69688287 45.4919398,8.65025924 45.4415359,8.62316713 C45.3747507,8.56961295 45.2474808,8.55638192 45.147303,8.54252084 C45.0534257,8.53622035 44.929936,8.57654349 44.8423592,8.56961295 C44.7825045,8.55638192 44.7283203,8.5021977 44.6779164,8.49589721 L44.3666721,8.67042081 C44.2696446,8.75043705 44.1789175,8.83738382 44.0680288,8.89786854 C44.0043939,8.91803011 43.1267355,9.36725512 42.902438,9.49389499 C42.7978498,9.55437971 42.6737302,9.50775607 42.5874134,9.58210187 C42.3656362,9.58210187 42.3725667,9.50775607 42.2547475,9.37355561 C42.2119042,9.32000144 42.1879623,9.29983987 42.1476392,9.23935515 C42.1205471,9.19273152 42.107316,9.09255371 42.0669929,9.05223057 C41.9264919,8.92496065 41.7456678,8.94512222 41.5950861,8.86447593 C41.5245206,8.83108333 41.4772669,8.75043705 41.4306433,8.68995233 L41.3739389,8.61686664 C41.3134541,8.58284398 41.3040034,8.62316713 41.2762812,8.65025924 C41.2762812,8.78382965 41.2025655,9.09255371 41.2063458,9.12594631 C41.1893345,9.23935515 41.1559419,9.37355561 41.1798837,9.49389499 C41.2132763,9.66904865 41.2800615,9.84231215 41.2939226,10.0168358 C41.2832118,10.1044126 41.2668305,10.4723613 41.2762812,10.5857701 C41.2800615,10.6330238 41.3002231,11.0954798 41.3002231,11.1962877 C41.3002231,11.289535 41.2529694,11.5182428 41.2762812,11.6316516 C41.2869921,11.7853836 41.3808694,12.1281303 41.3871699,12.1608929 C41.3966206,12.2018461 41.4772669,12.4286637 41.491128,12.482848 L41.5308211,12.5760952 C41.5616935,12.7443183 41.5106595,12.7102957 41.5308211,12.8841892 C41.5484625,12.971136 41.6045368,13.0782444 41.6984142,13.1053365 C41.7626792,13.1324286 41.850256,13.1185675 41.9195614,13.1588907 C41.9731156,13.1929133 42.1879623,13.2861606 42.2289155,13.2930911 C42.3057815,13.3466453 42.3316135,13.5211689 42.4601435,13.4940768 C42.5231484,13.4745453 42.5136977,13.3466453 42.5269287,13.2861606 C42.5596913,13.1929133 42.6504184,13.1185675 42.6806607,13.0316207 C42.7008223,12.9308129 42.6938917,12.8438661 42.6938917,12.7499888 L42.7644572,12.4412647 C42.7776883,12.2944633 42.7953296,12.368179 42.8154912,12.2220076 C42.838173,12.1608929 42.8652651,11.7853836 42.8822764,11.6845757 C42.902438,11.6316516 42.9389808,11.3103266 42.9421311,11.2025882 C42.9251198,11.0885493 42.8217917,11.0148335 42.7915494,10.8944942 C42.7776883,10.8138479 42.8217917,10.7533632 42.8117109,10.686578 C42.7978498,10.6260932 42.7644572,10.5523775 42.7978498,10.4855923 C42.7978498,10.4654307 42.8217917,10.4723613 42.838173,10.4723613 C43.0297079,10.5057539 43.2199827,10.559308 43.4045871,10.4855923 C43.4720024,10.4654307 43.5658797,10.3249298 43.6156536,10.2650751 C43.685589,10.1982899 44.0283358,9.92988898 44.1524554,9.88200525 C44.1524554,9.89649637 44.2192406,9.98344315 44.2255411,10.0099052 C44.2727948,10.1781283 44.2898061,10.3381608 44.2457027,10.5391465 C44.2457027,10.6260932 43.8670432,10.995302 43.8405811,11.0286946 C43.6629073,11.2158192 43.4316792,11.3437192 43.3573335,11.598259 C43.3844256,11.598259 43.3075596,11.6455127 43.287398,11.6518132 L43.2640862,11.7853836 C43.274167,11.8792609 43.1935207,12.3814101 43.2804675,12.50868 C43.3611137,12.6296494 43.4990945,12.6491809 43.6156536,12.7102957 C43.6893693,12.7443183 43.7164614,12.8237045 43.7832467,12.8438661 C43.8468816,12.8640277 44.2589337,12.8974203 44.3729726,12.8703282 C44.5777386,12.8438661 44.7957356,12.7638499 45.0137326,12.7638499 C45.147303,12.7770809 45.2581916,12.8104735 45.379161,12.8375656 C45.4724083,12.8438661 45.776722,12.8507966 45.8548481,12.8237045 C45.9310841,12.803543 45.9915688,12.7499888 46.0652845,12.7102957 C46.122619,12.6970647 46.1591618,12.6769031 46.2057855,12.6491809 C46.26375,12.6031873 46.3374657,12.5559337 46.3506968,12.496079 C46.3765288,12.4286637 46.3506968,12.3612485 46.3569973,12.2881628 C46.3569973,12.1684535 46.4338633,11.9334451 46.3903899,11.8326373 Z M21.9740968,4.4352307 C21.976617,4.27456818 21.9740968,4.22731449 22.0572632,4.06728202 C22.0238706,3.8732269 22.0679741,3.63128804 22.0875056,3.43723291 C21.7964229,3.42337183 22.1448401,2.26471152 22.117748,2.11728003 C22.0572632,1.86904068 21.4908491,1.10542116 21.2867132,0.985081781 C21.2066969,0.937828098 20.938296,0.850881321 20.8475689,0.877973433 C20.3485701,1.01847438 19.2762265,0.96492021 18.9448206,1.30640683 C18.7633665,1.24655216 18.5926232,1.3265684 18.4149493,1.34042948 L18.3840769,1.38012257 C18.2133336,1.39398365 17.563753,1.49416146 17.5196496,1.52755406 L17.3961599,1.52755406 C17.1315393,1.6819161 16.6753837,1.6819161 16.4643173,1.88920225 C16.4271444,1.90243328 16.1259809,2.01710222 16.0251731,2.08325738 C15.8481293,2.19729627 15.6597446,2.39828193 15.4285166,2.3516583 C15.0429265,2.50539028 14.5842508,2.57973608 14.2295331,2.78009169 C14.2295331,2.84750695 14.6913591,2.82041484 14.6982896,3.04849261 C14.7858665,3.04849261 14.856432,3.12220836 14.9496792,3.12220836 C15.2010688,3.15560096 15.6836865,3.13543939 15.8947529,2.9880079 C15.9823297,3.02833104 16.3509085,2.82041484 16.4044626,2.83364587 C16.5040104,2.71960698 16.5512641,2.70637595 16.7056261,2.70637595 C16.7459493,2.6660528 16.9765472,2.56650504 16.9765472,2.56650504 C17.0805053,2.55894445 17.2153358,2.51295087 17.3186639,2.47829817 C17.5801343,2.39135139 18.0728327,2.15760317 18.3172917,2.15760317 C18.4886651,2.15760317 18.5856926,2.12421057 18.7633665,2.08325738 C18.7999093,2.0706564 18.9303295,2.00324114 18.9643522,2.01710222 C19.1987304,1.90243328 19.7657746,2.06372586 19.9799913,2.01710222 C20.1538849,1.96984854 20.2546927,2.06372586 20.412205,2.11728003 L20.552706,2.33149673 C20.630202,2.3516583 20.707068,2.61312868 20.7310099,2.65975231 C20.7102182,2.75299958 20.6535138,3.18206302 20.7310099,3.24947828 C20.6031099,3.54434126 20.6131907,5.25933493 20.5230937,5.41999746 C20.5394749,5.61468263 20.4392971,6.17794654 20.4392971,6.17794654 C20.5092326,6.52636369 20.5060823,7.02914288 20.5060823,7.21563742 C20.5060823,7.402762 20.4021242,7.59114669 20.4021242,7.75873975 C20.3920434,7.92633281 20.5161631,8.28105046 20.4021242,8.40201989 C20.4285863,8.55638192 20.6566641,9.97588256 20.6131907,10.0766904 C20.552706,10.2909071 20.385743,10.5189849 20.3580208,10.7401321 C20.3485701,10.8006168 20.3649513,10.8674021 20.3485701,10.9215863 L20.4021242,10.9883715 C20.4021242,11.0551567 20.3788124,11.1427335 20.3649513,11.2158192 C20.3649513,11.2832345 20.4285863,11.6051896 20.2950159,11.598259 C20.1368736,11.585028 20.0732386,11.3834123 19.9465987,11.289535 C19.9661302,11.2832345 19.9465987,11.2700034 19.9465987,11.2763039 C19.8193288,11.1628951 19.6542559,10.9883715 19.4740619,11.0885493 C19.4740619,11.4237354 19.6007018,11.7381299 19.7752254,12.0266924 L19.8357101,12.0607151 C19.886114,12.3146249 20.0934002,12.6031873 20.2307509,12.8237045 C20.2307509,12.8375656 20.2616233,12.8841892 20.271074,12.8974203 C20.3649513,13.0921055 20.4960015,13.6686004 20.5697173,13.7624777 C20.7807837,14.0705717 21.5588944,14.3849662 21.6124486,14.43285 C21.6250495,14.43285 21.6515116,14.43285 21.6716732,14.4120583 L21.6716732,14.3585042 C21.8128042,14.3585042 21.8600579,14.2652569 21.9299933,14.1575185 C22.3256642,13.6749009 22.1448401,13.4335921 22.1713021,12.8974203 C22.1813829,12.5899563 22.3256642,12.3007638 22.2582489,11.9869993 C22.2324169,11.8257067 21.9936283,11.2630729 22.2185558,11.1893571 C22.2185558,11.0885493 22.2185558,10.5126844 22.1580711,10.4855923 C22.2481681,10.0766904 22.2418676,9.78182744 22.2015445,9.36725512 C22.1713021,9.0654616 22.2418676,8.73720601 22.2046947,8.41525092 C22.1246785,7.7247171 22.1580711,7.01465175 22.1278287,6.30521646 C22.117748,5.98326136 22.0742746,5.68839838 22.0875056,5.35321225 C22.0875056,5.1793187 21.976617,4.63684642 21.9740968,4.4352307 Z M14.3397917,4.82334095 C14.3498725,4.85106311 14.3832651,4.81704046 14.3933459,4.81010992 C14.3933459,4.88445572 14.8154788,5.01802613 14.8898246,5.05834927 C14.9263674,5.09930246 14.8929748,5.2461039 14.8929748,5.30595857 C14.9125063,5.37967431 14.9862221,5.4937132 15.0637181,5.54096689 C15.1204225,5.56112846 15.1840575,5.54096689 15.2476925,5.54096689 C15.3516506,5.55419792 15.4625392,5.54096689 15.5463357,5.54096689 L15.7240096,5.55419792 C15.8109564,5.54096689 15.9111342,5.52710581 15.9949307,5.56112846 C16.0251731,5.56742895 16.0522652,5.60082155 16.0522652,5.62098312 C16.0925883,5.69469887 16.0925883,5.7822757 16.1020391,5.86229193 C16.1020391,5.92970719 16.1259809,5.98326136 16.1259809,6.06390765 C16.1259809,6.16408545 16.1222006,6.26489331 16.0925883,6.3455396 C16.0724268,6.42555584 16.0321036,6.46587898 16.0087918,6.53329423 C15.9823297,6.53329423 15.8210372,6.55282575 15.7876446,6.56605679 L15.626352,6.66056415 C15.4688397,6.71978877 15.2980964,6.77334294 15.1544452,6.85461928 C15.0800994,6.90817345 15.0271753,6.95479709 14.9629103,7.00142072 C14.856432,7.05560494 14.7486936,7.12239015 14.6611167,7.19547585 C14.6075626,7.24903002 14.5710197,7.29565365 14.5212458,7.34353739 C14.5212458,7.37629994 14.5306966,7.38953097 14.5439276,7.402762 L14.5439276,7.45631618 C14.4935237,7.45631618 14.4166577,7.55775408 14.3832651,7.60437772 C14.3700341,7.60437772 14.4034267,7.71148607 14.4034267,7.75180921 C14.4229582,7.75180921 14.4538306,7.76567029 14.4538306,7.78520181 C14.4935237,7.92633281 14.7524739,8.01327959 14.8929748,8.00634905 C14.8929748,8.06053327 15.0901802,8.3213736 15.1405841,8.32830414 C15.1544452,8.32830414 15.3346392,8.36862729 15.3516506,8.37555783 C15.3516506,8.38185832 15.4625392,8.36862729 15.4959318,8.36862729 C15.4959318,8.42848195 15.4795505,8.48203613 15.4625392,8.48203613 L15.4625392,8.58284398 C15.4625392,8.55638192 15.4524584,8.75736759 15.3850432,8.83108333 C15.3850432,8.84431436 15.3415698,8.97158428 15.2980964,9.01883797 C15.2779348,9.01883797 15.2615536,9.09255371 15.2615536,9.10578474 C15.1204225,9.12594631 14.9125063,9.41324871 14.9125063,9.43404033 C14.9125063,9.50082553 14.8154788,9.56761074 14.792167,9.62809545 C14.7720054,9.62809545 14.792167,9.68227968 14.792167,9.70811169 C14.792167,9.78182744 14.6749778,10.0168358 14.651666,10.0168358 L14.651666,10.1441057 L14.651666,10.1642672 C14.6812783,10.1642672 14.7184512,10.3784839 14.7486936,10.4654307 C14.7820862,10.559308 14.9263674,10.7136701 14.9496792,10.699809 C14.9496792,10.7533632 15.0429265,10.7735247 15.0800994,10.7804553 C15.2079994,10.8006168 15.3787427,10.8138479 15.4990821,10.7936863 C15.5898091,10.7735247 15.6836865,10.7533632 15.7574022,10.7269011 C15.8481293,10.699809 15.935076,10.6935085 16.0157223,10.6601159 L16.2973543,10.5126844 C16.4743981,10.4585002 16.6690833,10.4251076 16.8228152,10.3381608 C16.8391965,10.3312303 16.9267733,10.2707455 16.9406344,10.251214 C17.0137201,10.251214 17.3186639,10.0168358 17.3186639,10.0168358 C17.358987,10.0231362 17.4969678,9.93555942 17.5303604,9.90909736 C17.5303604,9.91665795 17.7281958,9.82215058 17.7414268,9.80891955 C17.8050618,9.78182744 17.8611362,9.78182744 17.9121702,9.75599542 L18.103075,9.66148806 C18.1767908,9.62809545 18.2675178,9.60163339 18.3475341,9.58210187 C18.3475341,9.56131025 18.6732695,9.37355561 18.6896508,9.3464635 C18.7268236,9.31370095 18.8736251,9.19273152 18.9448206,9.15303843 C19.0210566,9.09255371 19.0985526,9.01190743 19.1155639,8.91803011 C19.1319452,8.87770697 19.1382457,8.83738382 19.1691181,8.79769073 C19.1854994,8.78382965 19.1955802,8.75736759 19.1955802,8.75736759 C19.205661,8.74350651 19.0550792,8.74350651 19.0550792,8.74350651 C18.9038674,8.74350651 19.0815413,8.45557406 19.1155639,8.41525092 C19.0116058,8.39508935 18.9070177,8.39508935 18.7973891,8.39508935 C18.7362744,8.39508935 18.615935,8.33460463 18.615935,8.3213736 C18.4382612,8.3213736 18.2404257,8.3213736 18.0860637,8.36862729 C18.0829135,8.33460463 18.1333174,8.19410368 18.1396179,8.14748005 C18.1194563,8.14748005 18.1837213,7.87214859 18.2240445,7.77827127 C18.1597795,7.77827127 18.1868716,7.7247171 18.1730105,7.68439395 L18.1503287,7.68439395 C18.1503287,7.68439395 18.3538346,7.55082354 18.397938,7.60437772 C18.4149493,7.59114669 18.6694892,7.19547585 18.6858705,7.17531427 C18.7198931,7.14255172 18.9914443,6.92203453 19.0116058,6.83445771 C19.0210566,6.80736559 19.0317674,6.77334294 19.0418482,6.75381142 C19.0683103,6.7008873 19.0985526,6.66056415 19.1117837,6.59944939 C19.1155639,6.5597563 19.0985526,6.52636369 19.1017029,6.47911001 L19.1155639,6.42555584 C19.1319452,6.37200166 19.1017029,6.30521646 19.0815413,6.25103223 C19.0210566,6.16408545 18.9341098,6.10990123 18.8572438,6.04374608 L18.5056764,5.78857619 L18.3538346,5.70855995 L18.2971302,5.65500578 C18.2542868,5.62098312 18.2038829,5.58759052 18.1503287,5.56742895 C18.1730105,5.55419792 18.1767908,5.51387477 18.1931721,5.4937132 C18.1931721,5.39983589 18.2542868,5.21901179 18.2971302,5.13836551 L18.3878572,5.05834927 C18.3878572,5.01802613 18.6732695,4.7571858 18.6694892,4.74395476 C18.7734473,4.74395476 18.9303295,4.39490756 18.9341098,4.38167653 C18.9341098,4.3684455 19.0550792,4.221014 19.0683103,4.20715292 C19.1382457,4.09437413 19.0884718,4.00049682 19.0985526,3.8732269 C19.0985526,3.8322737 19.1155639,3.80581164 19.1319452,3.77241904 C19.1590373,3.71193432 19.1319452,3.64514912 19.1117837,3.59159494 C19.0714605,3.47062552 18.9807334,3.38367874 18.9303295,3.26963985 C18.9070177,3.21608568 18.8307818,3.13543939 18.8169207,3.14236993 C18.8169207,3.04849261 18.6594084,2.9880079 18.5749818,2.9880079 C18.4685035,3.08881576 18.0564514,3.09511625 17.8888583,3.1625315 C17.8119923,3.1625315 17.5234299,3.20915514 17.4931875,3.22301622 C17.4698757,3.24254774 17.3054329,3.28980142 17.1850935,3.30996299 C17.1850935,3.33642506 16.9702467,3.39690977 16.8391965,3.49708758 C16.7289379,3.49708758 16.6350606,3.54434126 16.5317326,3.57773386 C16.4977099,3.59159494 16.4271444,3.62498755 16.4044626,3.62498755 C16.4044626,3.63128804 16.2671119,3.64514912 16.2671119,3.65144961 C16.2469504,3.64514912 16.1694543,3.67161118 16.1429923,3.68484221 C16.062346,3.72516536 15.9111342,3.7988811 15.9111342,3.80581164 C15.8210372,3.80581164 15.6301323,3.93308156 15.6301323,3.93308156 C15.6194214,3.91985053 15.4052047,4.06728202 15.3718121,4.06728202 C15.34472,4.06728202 15.2010688,4.10760516 15.2010688,4.10760516 C15.1840575,4.10760516 15.1575954,4.14666821 15.1506649,4.15485885 C15.1342836,4.15485885 15.1342836,4.15485885 15.1204225,4.17376032 C15.0706487,4.17376032 15.036626,4.27456818 15.036626,4.28086867 C14.9729911,4.28086867 14.8992753,4.34135338 14.869033,4.38167653 C14.8318601,4.38167653 14.664897,4.50894645 14.6447355,4.52910802 C14.4469001,4.52910802 14.2654459,4.58959273 14.3397917,4.82334095 Z M19.7216712,10.4251076 L19.7216712,10.3715534 L19.6107825,10.3715534 C19.4066466,10.5391465 18.7973891,10.5927006 18.7362744,10.699809 L18.6228655,10.7136701 C18.5220577,10.7136701 18.3777764,10.8472405 18.2738183,10.8674021 C18.1503287,10.8875636 18.0161283,10.8812631 17.8888583,10.9077252 C17.8283736,10.9278868 17.4969678,11.0753183 17.3526865,11.1427335 C17.2588092,11.1427335 16.8933807,11.2630729 16.819665,11.3103266 L16.6690833,11.3304881 C16.5481138,11.2498419 16.0522652,11.5314738 15.935076,11.585028 C15.9149145,11.598259 15.8008756,11.5314738 15.7574022,11.5314738 C15.5261742,11.5182428 15.3585811,11.6656743 15.1575954,11.6789053 C15.0227649,11.6921363 14.8791137,11.6518132 14.7354625,11.6719748 C14.664897,11.6789053 14.5911813,11.7318294 14.5212458,11.7255289 C14.4034267,11.7053674 14.4229582,11.6656743 14.2761567,11.6921363 C14.3700341,11.8326373 14.6982896,12.6567415 14.8425709,12.6970647 C14.8992753,12.7033652 15.036626,12.7033652 15.0706487,12.7367578 C15.2079994,12.6832036 15.6673052,12.6296494 15.7240096,12.521911 L15.8008756,12.521911 C15.8645105,12.482848 16.1562233,12.3814101 16.1896159,12.3347864 C16.3036548,12.3347864 16.8530576,12.1281303 16.9702467,12.0670156 C17.0307314,12.0670156 17.1044472,12.033623 17.1416201,11.9869993 C17.1416201,11.9334451 17.3791486,11.8792609 17.4295525,11.8590993 C17.5398111,11.8131058 17.6437692,11.7255289 17.7445771,11.6719748 C18.103075,11.4779196 18.2240445,11.3235576 18.5119769,11.1225719 C18.8307818,10.9077252 19.218892,10.7804553 19.5572284,10.5656085 C19.6107825,10.5391465 19.6649668,10.4723613 19.7216712,10.4251076 Z M14.2761567,5.52080531 C14.2761567,5.48048217 14.2654459,5.27256597 14.2862375,5.285797 C14.2862375,5.19948027 14.2427641,5.13836551 14.2654459,5.05834927 C14.1627479,5.05834927 14.1822794,4.54989964 14.1690484,4.46295286 C14.1627479,4.4352307 14.124945,4.30796078 14.124945,4.30796078 C14.124945,4.2940997 14.1047834,4.19455194 14.0984829,4.19455194 C14.0984829,4.20715292 14.0512292,4.12020615 14.048079,4.09437413 C14.0310676,4.10760516 13.8874164,3.8732269 13.8540238,3.75855796 C13.830082,3.62498755 13.8332322,3.49078709 13.7431352,3.39060928 C13.7198234,3.37044771 13.67635,3.3433556 13.6360268,3.30996299 C13.6328766,3.41707134 13.6328766,3.43723291 13.5723919,3.51094866 C13.5591609,3.61112647 13.4917456,3.74532693 13.4615032,3.84613478 C13.4318909,3.96647416 13.4110993,4.10067462 13.4218102,4.23424503 L13.4615032,4.4018381 C13.4747343,4.46295286 13.4514225,4.50264596 13.4684338,4.55620013 C13.4514225,4.55620013 13.4615032,4.63684642 13.4615032,4.65574789 C13.4615032,4.74395476 13.458353,4.83090154 13.4684338,4.93800989 C13.4816648,5.03125716 13.5188377,5.15852708 13.5188377,5.25933493 C13.5150574,5.36644328 13.4615032,5.41999746 13.4514225,5.51387477 C13.4514225,5.62791366 13.4514225,5.77534515 13.4318909,5.90261507 L13.3644757,6.07713868 C13.3310831,6.171016 13.303991,6.27812434 13.2775289,6.36507112 C13.2674481,6.42555584 13.2542171,6.55282575 13.2435063,6.55282575 C13.2435063,6.58684841 13.2876097,6.59944939 13.2775289,6.64040258 C13.2775289,6.77334294 13.2775289,6.91447394 13.2674481,7.04174386 C13.2542171,7.13625123 13.2340555,7.19547585 13.2201944,7.26919159 L13.2201944,7.44371519 C13.2138939,7.55775408 13.1937324,7.68439395 13.1836516,7.81229392 C13.1836516,7.89231016 13.1401782,7.97295645 13.1200166,8.06053327 C13.1200166,8.1134574 13.085994,8.30814257 13.0897743,8.36862729 C13.0897743,8.52928981 13.0633122,8.84431436 13.0727629,8.86447593 C13.0563817,8.85754539 13.0727629,8.86447593 13.0563817,8.86447593 C13.0387403,8.90479908 13.0122782,9.05223057 13.0122782,9.09255371 C12.9927467,9.16626946 12.9486433,9.21982363 12.9284817,9.29290933 C12.9020196,9.40064773 12.9020196,9.64132649 12.9486433,9.74150429 C12.9694349,9.74150429 12.9795157,9.98344315 12.9757354,10.0036047 C12.9354122,10.1982899 13.0727629,10.4251076 12.9354122,10.5927006 C12.9354122,10.699809 12.9020196,10.7804553 12.9020196,10.8875636 C12.8818581,11.289535 12.9757354,11.6719748 13.2542171,11.9334451 C13.317222,11.9869993 13.4155097,12.0607151 13.5056067,12.0197619 C13.5389993,11.9800688 13.5723919,11.9334451 13.599484,11.9000525 C13.830082,11.571797 13.7336845,11.1156414 13.689581,10.7338316 C13.6832805,10.6733469 13.663119,10.6260932 13.663119,10.5523775 C13.663119,10.3381608 13.7261239,10.1699377 13.7431352,9.97588256 C13.7595165,9.86877421 13.7431352,9.73583385 13.779678,9.62809545 C13.5925535,9.51405657 13.6832805,9.07239214 13.7261239,8.88463751 C13.7431352,8.78382965 13.7500657,8.66349027 13.7431352,8.54252084 C13.7261239,8.48203613 13.8004697,8.13361897 13.8004697,8.13361897 C13.8036199,8.03344116 13.8741854,7.81229392 13.8773357,7.81229392 C13.8773357,7.75873975 13.971213,7.402762 13.9812938,7.38953097 C13.9812938,7.37629994 14.0512292,7.02914288 14.0846218,6.92203453 C14.0984829,6.86785031 14.1822794,6.68072572 14.1822794,6.64040258 C14.1955105,6.5597563 14.2295331,6.47280952 14.2559952,6.40539426 C14.2761567,6.40539426 14.2559952,6.33167852 14.2559952,6.30521646 C14.2295331,6.26489331 14.2093715,6.21763963 14.1822794,6.171016 L14.1822794,5.95616925 C14.1721986,5.91647616 14.2295331,5.86922247 14.2396139,5.82889933 C14.2427641,5.7822757 14.2761567,5.58129003 14.2761567,5.52080531 Z M19.1382457,7.35613837 C19.1155639,7.35613837 19.1319452,7.36369896 19.1319452,7.38386053 C19.1451763,7.38386053 19.0683103,7.53066197 19.0550792,7.53066197 C19.0550792,7.60437772 19.0116058,7.71904666 19.0116058,7.71904666 C19.0116058,7.7247171 18.9303295,7.75873975 18.9070177,7.77827127 C18.9341098,7.77827127 18.8736251,7.8658481 18.8736251,7.8658481 C18.8673246,7.89231016 18.8906364,7.89231016 18.9070177,7.89231016 C19.0418482,7.91247173 19.2125915,7.81229392 19.2428339,7.81229392 L19.4639811,7.75180921 L19.681348,7.7247171 C19.7456131,7.71148607 19.8023175,7.68439395 19.8628022,7.71148607 C19.8628022,7.7247171 19.9295874,7.68439395 19.9465987,7.69132449 C20.117342,7.75873975 20.2616233,7.61193831 20.3485701,7.50419991 C20.3246282,7.38386053 20.385743,7.25722066 20.385743,7.16271329 C20.385743,7.08269706 20.3580208,7.02914288 20.3384893,6.96802812 C20.3246282,6.91447394 20.3315587,6.86785031 20.2880853,6.83445771 C20.2880853,6.80736559 20.2307509,6.78720402 20.2143696,6.78720402 C20.2143696,6.78720402 20.1368736,6.76704245 20.0934002,6.75381142 C20.0234647,6.71978877 19.9094258,6.68072572 19.8357101,6.71978877 C19.8357101,6.71978877 19.8023175,6.7008873 19.7890864,6.68072572 C19.7386825,6.61331047 19.6177131,6.59944939 19.5414771,6.5597563 L19.3663235,6.47911001 C19.3801846,6.58684841 19.4400392,6.66056415 19.4539003,6.76704245 C19.4740619,6.98125915 19.3631732,7.10852907 19.232123,7.24903002 C19.1955802,7.29565365 19.1854994,7.31581523 19.1382457,7.35613837 Z M9.03792845,2.70637595 L9.03792845,2.75299958 L9.21875255,2.75299958 C9.16204813,2.74669909 9.10534371,2.70637595 9.04800924,2.69944541 L9.03792845,2.70637595 Z M8.72605415,2.56650504 C8.74621572,2.55894445 8.77330783,2.54634347 8.78338861,2.53248239 L8.91758907,2.55894445 C9.00138561,2.57217549 9.10534371,2.57217549 9.18851019,2.54634347 L9.21875255,2.54634347 C9.00138561,2.53248239 8.81993146,2.46506714 8.59941427,2.46506714 L8.49860642,2.54634347 L8.49860642,2.57973608 C8.53514927,2.57973608 8.54207981,2.61312868 8.59248373,2.60556809 L8.72605415,2.56650504 Z M8.97114325,2.69944541 L8.97114325,2.84750695 L9.00138561,2.86766852 C9.03792845,2.84750695 9.00138561,2.71960698 8.97114325,2.69944541 Z M5.38868402,14.2652569 C5.32189881,14.3515736 5.34521063,14.6395061 5.37545299,14.754175 L5.40191505,14.7680361 C5.42207662,14.754175 5.41892637,14.7270829 5.41892637,14.7201524 C5.43215741,14.5733509 5.48949187,14.3717352 5.38868402,14.2652569 Z M6.27327297,14.1178254 C6.27327297,14.30495 6.24303061,14.458682 6.24303061,14.6395061 C6.35076901,14.6395061 6.38038131,14.1915411 6.27327297,14.1178254 Z M5.29165645,14.2709273 L5.25133331,14.2709273 C5.25133331,14.291719 5.25826385,14.2847884 5.23432199,14.2847884 C5.21416041,14.2652569 5.25826385,14.1915411 5.27149488,14.1442875 C5.18454811,14.1442875 5.15745599,14.1039643 5.10075157,14.0705717 C5.05034765,14.2180032 5.10075157,14.2652569 5.16438653,14.3918968 C5.18454811,14.458682 5.20092938,14.5399583 5.21416041,14.6067435 L5.23432199,14.6067435 C5.25826385,14.5664204 5.27779537,14.5399583 5.29165645,14.4927046 L5.29165645,14.2709273 Z M4.413368,4.99786455 C4.21931287,5.51387477 3.24399685,5.62098312 2.91889151,5.8824535 C2.63095907,6.11746182 2.51629013,6.35184009 2.27876162,6.64040258 C2.24221877,6.7008873 2.29199265,6.73364985 2.17165327,6.83445771 L2.0771459,7.16271329 L1.94672574,7.42292357 C1.82638636,7.45631618 1.65564305,7.83875599 1.73250904,7.93956384 C1.61847015,8.03974165 1.58822779,8.09392587 1.64871251,8.24765786 L1.78228292,8.18717314 C2.0771459,8.23442683 2.35247736,7.61760875 2.93590284,7.55082354 C3.49538645,7.47647775 3.68314108,7.44371519 4.1619784,7.16271329 C4.27601729,6.93463551 4.64459602,6.63347204 4.69121965,6.43248638 C4.7624152,6.13762339 4.56773003,5.89631458 4.56773003,5.61468263 C4.59734234,5.60082155 4.47700296,5.21901179 4.413368,4.99786455 Z M4.413368,3.82534316 L4.413368,3.61805701 C4.70130044,3.32319402 4.62758469,3.20915514 4.58726155,2.85380744 C4.56773003,2.69314492 4.69121965,2.54634347 4.69121965,2.40521247 C4.69815019,2.21682779 4.66160735,1.38705311 4.61813396,1.17283642 C4.58726155,1.05186699 4.52740689,0.944758638 4.50031477,0.817488719 L4.61813396,0.817488719 C4.57088027,0.690218799 4.53118718,0.56231883 4.45306109,0.44197945 L4.54378816,0.374564195 C5.98849077,0.455210481 5.9645489,1.88920225 6.71871769,2.49845974 C6.80314427,2.55894445 6.84913785,2.65975231 6.96695703,2.68621437 C7.03059199,2.69944541 7.07406538,2.63329025 7.1345501,2.63329025 C7.19125452,2.69314492 7.26875056,2.67298334 7.33553576,2.70637595 C7.39665053,2.71960698 7.40925151,2.8071838 7.47603671,2.8071838 L7.5232904,2.69944541 C7.61401747,2.70637595 7.70726474,2.64589123 7.78476078,2.65975231 C7.90510016,2.68621437 7.96558487,2.68621437 8.0865543,2.68621437 C7.99897747,2.48522871 7.47603671,2.7737912 7.47603671,2.5261819 C7.80807259,2.49845974 8.09285479,2.47829817 8.41417984,2.47829817 C8.38141728,2.55894445 8.28060943,2.64589123 8.18043162,2.64589123 C8.20752373,2.69944541 8.23713604,2.74669909 8.26737839,2.80025326 L8.18043162,2.86766852 L8.30770154,2.90736161 C8.38456753,2.74669909 8.39779856,2.80025326 8.55909113,2.80025326 L8.56539162,2.74669909 L8.60886501,2.74669909 L8.64225761,2.8071838 L8.65926894,2.8071838 C8.67943051,2.69314492 8.81048073,2.68621437 8.90057775,2.70637595 C8.88104623,2.82041484 8.81993146,2.90106112 8.81993146,3.00123893 C8.86088465,2.99493844 9.06187032,2.99493844 9.06817081,3.0547931 L9.09526292,3.0547931 L9.18851019,2.92752318 C9.17590921,2.91429215 9.15196734,2.88720004 9.11542449,2.88720004 L9.15196734,2.8071838 C9.23261363,2.82041484 9.36996433,2.88720004 9.36996433,2.74669909 C9.49345396,2.75993012 9.68498889,2.88720004 9.81225881,2.92752318 L9.81225881,2.96154584 C9.63143471,2.92752318 9.40965743,2.82041484 9.40965743,3.10897733 C9.30632937,3.08881576 9.29624859,3.04849261 9.30632937,2.96154584 C9.29624859,2.94138426 9.29624859,2.94138426 9.27230672,2.92752318 C9.11542449,3.41707134 7.99204693,3.51094866 7.65749086,3.89968896 C7.60708693,3.95324313 7.65749086,4.08051305 7.65749086,4.14666821 C7.65749086,4.221014 7.58692536,4.26133715 7.58062487,4.33568294 C7.56991403,4.41506913 7.61401747,4.52910802 7.6272485,4.62361538 C7.63039875,4.67590946 7.63039875,4.73639417 7.63417904,4.78994835 C7.64425983,4.89768675 7.68080267,5.41999746 7.70726474,5.48741271 L7.76774945,5.54096689 C7.92211148,5.37967431 8.28438972,5.40676643 8.39779856,5.36644328 C8.51498769,5.31981965 8.64225761,5.19948027 8.76322704,5.12513447 C8.93082011,4.73639417 9.39957664,4.4018381 9.50416479,4.06728202 C9.52432637,4.02695888 9.48022293,3.99356628 9.48022293,3.9400121 C9.70200021,3.7320959 9.95023956,3.25640882 9.86581298,2.9546153 C9.81225881,2.73346806 9.54448794,2.69944541 9.36996433,2.61312868 L9.40965743,2.57973608 C9.84880166,2.69944541 10.1707568,2.82041484 10.1071218,3.3433556 C10.0434868,3.91985053 9.89668539,4.34135338 9.90613613,4.93800989 C9.90613613,4.97770298 9.86266274,5.01802613 9.84565141,5.05141873 C9.79524748,5.11253349 9.75870463,5.19948027 9.73539282,5.27256597 C9.62135393,5.60082155 9.58733128,5.95616925 9.5337771,6.30521646 C9.50416479,6.47911001 9.43296925,7.34353739 9.18851019,7.34353739 C9.24584466,7.75180921 8.33101335,7.80536338 8.01913905,7.91247173 C7.78476078,8.00634905 7.42248254,9.09255371 7.3424663,9.40064773 C7.31537419,9.51405657 7.0639846,9.68227968 7.04760332,9.80198901 C7.00412993,10.3312303 7.04760332,10.9814409 6.89324129,11.4577581 C6.78298269,11.751991 6.65508273,12.0071609 6.52466256,12.2806022 C6.50450099,12.3347864 6.52151231,12.50868 6.52151231,12.5823957 C6.50450099,12.8375656 6.42070446,13.0782444 6.42070446,13.3403448 C6.427635,13.4272916 6.48118917,13.6950625 6.4610276,13.7757087 C6.45472711,13.8361935 6.29343454,14.0642712 6.24303061,14.0705717 C6.22979958,14.0302486 6.18947643,13.9703939 6.15608383,13.9703939 C6.13277201,14.1442875 6.18947643,14.30495 6.14978334,14.458682 L6.12269123,14.4927046 L6.00865234,14.43285 L5.98471047,14.43285 C5.98471047,14.4927046 5.9645489,14.934369 5.88453267,14.934369 C5.85114006,14.8745144 5.84105928,14.7938681 5.84105928,14.7201524 L5.76419329,14.7201524 L5.76419329,14.6867597 L5.82089771,14.613044 C5.82782825,14.613044 5.61991204,14.7680361 5.58966968,14.7680361 C5.47248055,14.7478745 5.4693303,13.9836249 5.68039675,13.8626555 L5.7541125,13.9099092 L5.7541125,13.8021708 L5.48949187,13.8160319 C5.46239976,13.6749009 5.29795695,12.8703282 5.18454811,12.8640277 C5.09004074,13.0448518 5.00687426,13.4606842 5.21794071,13.5413305 C5.25826385,13.6219768 5.23432199,13.6950625 5.23432199,13.7757087 C5.23432199,13.7895698 5.21101017,13.8021708 5.20092938,13.7895698 L5.16753678,13.5948846 L5.04341711,13.5810236 C5.05664814,13.715224 5.08374025,13.8361935 5.08374025,13.9703939 L5.00687426,13.9502323 C4.96655111,13.8361935 4.98671269,13.688762 4.95962057,13.5545615 C4.86259301,13.1929133 4.78509697,13.1721217 4.82542011,12.7102957 C4.83235065,12.6491809 4.88905507,12.6157883 4.88905507,12.5496332 C4.88275458,12.482848 4.7624152,12.1741239 4.7624152,12.1608929 C4.79895805,11.7658521 4.74540388,11.3437192 4.74540388,10.9411178 C4.73532309,10.7735247 4.61813396,10.5857701 4.60805317,10.418177 C4.55386895,9.82845107 4.81596938,9.70811169 4.47007242,9.03899954 C3.99123509,9.26581722 3.36811653,9.29983987 2.85147626,9.46743293 C2.71790585,9.50775607 2.6107975,9.60163339 2.48604777,9.64132649 C2.41926257,9.65518757 1.78606321,9.56131025 1.74258982,9.52791765 C1.59515833,9.41324871 1.55168494,8.94512222 1.50128102,8.74350651 C1.16987519,8.7101139 0.830908765,9.15303843 0.626772853,8.65025924 C0.609761527,8.60300555 0.573218679,8.56961295 0.542976322,8.53622035 L0.478711313,8.55638192 C0.469260576,8.5021977 0.308598053,8.16071108 0.308598053,8.16071108 C0.325609379,8.14054951 0.267644861,8.01327959 0.267644861,8.01327959 C-0.0335186126,7.85198702 0.19770941,6.95479709 0.184478379,6.76704245 C0.19770941,6.77334294 0.371602964,6.4123248 0.368452719,6.33860906 C0.546126567,6.22457017 0.525964996,5.92277665 0.525964996,5.87615301 L0.619842313,5.7822757 C0.626772853,5.67516735 0.878162448,5.30595857 0.847290041,5.2461039 C0.847290041,5.2461039 1.02181364,4.78994835 1.02559394,4.77734737 C1.04197522,4.76978678 1.05898654,4.69040059 1.05898654,4.69040059 C1.08859885,4.64314691 1.35384952,3.96017367 1.3740111,3.89275842 L1.44394655,3.89275842 C1.44772684,3.81967272 1.60460907,3.49078709 1.65564305,3.49078709 C1.74258982,3.49708758 1.90703264,4.10067462 1.90703264,4.18132091 L2.00027991,4.34828392 C2.08785674,4.54233905 2.0771459,4.70300157 2.00027991,4.91091778 L2.0771459,4.92414881 L2.0771459,4.89075621 L2.13448037,4.88445572 L2.17165327,4.86429414 C2.40603154,4.84350252 2.48982807,4.65574789 2.66750192,4.58959273 C2.86470729,4.51650704 3.01906932,4.46295286 3.20052346,4.34828392 C3.26793872,4.30796078 3.59934455,4.221014 3.59934455,4.221014 C3.68314108,4.10067462 4.26593651,3.89968896 4.413368,3.82534316 Z M34.7949661,11.61149 L34.7949661,11.5182428 C34.7017188,11.430666 34.7187301,11.443897 34.6777769,11.5182428 L34.6777769,11.4237354 C34.6714764,11.430666 34.6714764,11.3903428 34.6412341,11.4105044 L34.6412341,11.443897 C34.6072114,11.430666 34.6412341,11.430666 34.6040612,11.430666 L34.614772,11.3500197 L34.6040612,11.3834123 L34.5612178,11.3235576 C34.5473568,11.3166271 34.5612178,11.303396 34.5738188,11.3103266 L34.6412341,11.2700034 L34.6242228,11.2296803 C34.5946105,11.2498419 34.5536573,11.2832345 34.5303454,11.3235576 L34.5738188,11.1962877 L34.6242228,11.1962877 C34.614772,11.1754961 34.6550952,11.1893571 34.6412341,11.1628951 C34.4938026,11.1628951 34.5738188,10.9883715 34.4938026,11.1427335 L34.4433987,11.1893571 C34.4370982,11.1962877 34.4433987,11.1559645 34.4169366,11.1628951 C34.4270174,11.1427335 34.4433987,11.0954798 34.4370982,11.0753183 C34.396775,11.0753183 34.3596021,11.0620872 34.3230593,11.0488562 C34.3129785,11.0286946 34.3797637,11.0148335 34.3898445,11.0148335 L34.3501514,10.9814409 L34.3501514,10.9348173 C34.3596021,10.9411178 34.3665327,10.9278868 34.3665327,10.9278868 L34.4169366,10.9480483 C34.4270174,10.9411178 34.4131563,10.9278868 34.4068558,10.9348173 L34.3331401,10.8674021 C34.3331401,10.8674021 34.3230593,10.8743326 34.3129785,10.8812631 L34.255644,10.8006168 C34.2461933,10.8075474 34.2323322,10.7936863 34.2392628,10.7804553 L34.1686973,10.8006168 C34.1516859,10.7936863 34.1516859,10.7735247 34.1516859,10.7533632 L34.1485357,10.8207784 L34.1989396,10.8138479 C34.2090204,10.8472405 34.2222514,10.8812631 34.2121706,10.9278868 L34.1825583,10.9278868 L34.1050623,10.7804553 L34.0748199,10.7735247 C34.0578086,10.7804553 34.0786002,10.7804553 34.0313465,10.7804553 L34.1050623,10.7338316 L34.1283741,10.7338316 C34.0578086,10.686578 33.921088,10.686578 33.8971461,10.7735247 L33.8164998,10.8138479 C33.8209101,10.8207784 33.7837372,10.827709 33.7730264,10.84094 L33.5556595,10.995302 C33.5254171,10.9883715 33.1366768,11.0954798 33.100134,11.135803 C32.882137,11.135803 31.7927821,11.4042039 31.7291471,11.4709891 L31.5073698,11.5043817 C31.112329,11.5043817 30.559776,11.598259 30.2743637,11.6455127 C30.1672554,11.598259 30.060147,11.5447048 29.9561889,11.5182428 C29.8623116,11.5182428 29.8522308,11.4105044 29.8257687,11.3437192 C29.4534097,10.5996312 29.5611481,10.7269011 29.9668997,10.2304224 C30.0236042,10.1642672 30.0872391,10.0905515 30.1565445,10.0495983 C30.3890326,9.88200525 30.5931686,10.0432978 30.6901961,9.95005055 C30.7809232,9.92988898 30.8848813,9.91665795 30.9648975,9.89649637 C31.021602,9.86877421 31.0789364,9.83538161 31.1324906,9.80891955 C31.2458994,9.74843483 31.4342841,9.80198901 31.5647043,9.72134272 C31.5949466,9.72890331 31.715286,9.67471909 31.76569,9.67471909 C32.061183,9.62809545 32.3321041,9.62809545 32.6307474,9.56131025 C32.6843016,9.56761074 32.8216523,9.37355561 32.8348833,9.32000144 C32.8487444,9.25258619 32.9659335,9.14610789 32.9993261,9.07239214 C33.0629611,8.95835325 33.2003118,8.91803011 33.2236236,8.77059862 C33.2406349,8.7101139 33.2103926,8.58977452 33.2103926,8.56961295 C33.2236236,8.48896667 33.2538659,8.41525092 33.267097,8.32830414 C33.3042699,8.16071108 32.882137,7.65793189 32.8922178,7.47647775 C32.8922178,7.402762 33.2639467,6.55282575 33.2639467,6.55282575 C33.2910388,6.47280952 33.3244314,6.13762339 33.421459,6.11746182 C33.4315398,6.07713868 33.4819437,5.8824535 33.4819437,5.86229193 C33.4819437,5.65500578 33.6092136,5.4937132 33.6092136,5.30595857 C33.6092136,5.23917336 33.5556595,5.15852708 33.56196,5.0715803 C33.56196,5.01802613 33.6022831,4.97140249 33.5959826,4.91091778 C33.5922023,4.76978678 33.4611521,4.67590946 33.4718629,4.53603856 L33.267097,4.25440661 C33.0390192,3.92678107 33.2538659,3.71193432 32.741006,3.51094866 C32.7441562,3.53804077 32.6843016,3.53804077 32.6710705,3.53804077 C32.4694548,3.53804077 32.3321041,3.27657039 32.0271603,3.3433556 C31.8898096,3.37044771 31.7524589,3.27657039 31.6453506,3.28980142 C31.5180807,3.29673196 30.3821021,3.89968896 30.1905672,4.02695888 C30.1439435,4.05405099 30.0236042,4.04018991 29.9732002,4.04018991 C29.9795007,4.04018991 29.9668997,4.02695888 29.9593392,4.02695888 C29.9593392,3.3433556 30.4791297,2.69944541 29.6077718,2.29054353 C29.3563822,2.17020415 29.2656551,2.09711846 28.9644916,2.09711846 C28.9846532,2.21115735 28.9210182,2.36488933 28.9241685,2.51295087 C28.8271409,2.65975231 28.7061715,2.83364587 28.6696286,3.01446996 C28.5889823,3.29673196 28.4888045,4.38860707 28.3678351,4.52217748 C28.1498381,4.76348629 28.1769302,4.69040059 27.9217603,4.81010992 C27.8852175,4.83090154 27.6703707,4.99156406 27.6470589,4.97770298 C27.4057501,5.1459261 27.211695,5.2461039 26.9905478,5.47355163 C27.0207901,5.48048217 26.9672359,5.47355163 26.9905478,5.48741271 C27.2419374,5.51387477 27.2589487,5.48048217 27.391889,5.68839838 C27.6205969,5.68839838 27.8045712,5.51387477 28.0288687,5.56112846 C28.0288687,5.64807523 28.0496603,5.70855995 28.0496603,5.80243727 C28.0496603,5.80243727 28.0931337,5.91647616 28.1000642,5.90261507 C28.1000642,5.97633082 27.9520027,6.17794654 27.9015988,6.24473174 C27.8883677,6.51250261 27.0340211,7.10852907 26.8632778,7.21563742 C26.8059434,7.06883597 26.8865897,6.33860906 26.9470744,6.19117757 C26.916832,6.10990123 26.9269128,6.04374608 26.9269128,5.96940028 C26.930063,5.8824535 26.6251193,5.56112846 26.5854262,5.37967431 C26.5784956,5.36644328 26.5646346,5.37967431 26.5715651,5.39983589 C26.2092869,5.31981965 26.4537459,5.01802613 26.24961,4.93800989 C26.1702238,4.9304493 26.1122593,5.33935117 26.0221623,5.41999746 C25.9982204,5.47355163 25.9887697,5.51387477 25.9950702,5.56112846 L25.9515968,5.58129003 C25.9515968,5.78857619 25.6630343,6.00342293 25.6365722,6.15085442 C25.5729373,6.45264795 25.6189308,6.75381142 25.646653,7.05560494 C25.6831959,7.50419991 25.5426949,8.08699533 25.4822102,8.52928981 C25.4324363,8.97158428 25.1306428,9.07239214 25.3284782,9.56131025 C25.4053442,9.71441218 25.8274771,9.92988898 25.9950702,9.95572099 C26.095878,9.96958207 26.1702238,10.2650751 26.2767021,10.3116987 C26.4241336,10.391715 26.5381725,10.5391465 26.6654424,10.5927006 C26.8361857,10.6601159 27.2217758,10.6128622 27.3156531,10.7735247 C27.4498536,10.9682099 27.5701929,12.3215554 27.9860253,12.4551258 L27.9992564,12.4683568 C28.0124874,12.5823957 28.250646,12.6970647 28.340743,12.7499888 C28.8271409,13.0517823 29.0520684,13.0921055 29.6147023,13.1456596 C29.7955264,13.1588907 30.0236042,13.2061443 30.1905672,13.1721217 C30.2983056,13.2930911 31.3971112,13.2061443 31.4739772,13.0517823 L31.7927821,12.9912976 C31.7927821,12.9912976 32.061183,12.971136 32.0674835,12.971136 C32.1178874,12.971136 32.7038331,12.8237045 32.6710705,12.7638499 C32.6710705,12.7638499 32.6843016,12.7569193 32.741006,12.7569193 C32.9054488,12.7102957 33.8669037,12.4286637 33.8568229,12.4683568 C33.8769845,12.50868 34.1050623,12.3612485 34.1485357,12.3480175 L34.088051,12.3347864 L34.1088426,12.3007638 L34.1516859,12.2276781 L34.1825583,12.2276781 L34.1686973,12.1608929 L34.1989396,12.1608929 L34.2392628,12.1873549 C34.255644,12.1873549 34.2657248,12.1608929 34.2657248,12.1539623 C34.255644,12.1281303 34.2657248,12.1281303 34.2461933,12.1073387 L34.2896667,12.033623 L34.2392628,12.0537845 C34.2392628,11.905723 34.4270174,11.8729604 34.4767913,11.751991 L34.5001031,11.751991 L34.4938026,11.8257067 L34.5876799,11.6921363 L34.614772,11.6921363 C34.6179223,11.6921363 34.6072114,11.7255289 34.6040612,11.7053674 L34.5738188,11.7658521 C34.6040612,11.7721526 34.5473568,11.8326373 34.6040612,11.8131058 L34.6242228,11.7381299 L34.6777769,11.6921363 L34.7017188,11.7255289 L34.7653538,11.6455127 L34.7949661,11.61149 Z M31.3605684,7.34353739 C31.3133147,7.38953097 31.2868526,7.46324672 31.266061,7.5105004 C31.1797443,7.63777032 30.6467227,7.8658481 30.663104,7.85891756 C30.4350262,8.01958008 30.1036204,8.18717314 29.8623116,7.99311802 C29.8623116,7.99311802 29.7885958,7.83875599 29.7722146,7.7247171 C29.8257687,7.65793189 29.8219885,7.60437772 29.8257687,7.53066197 C29.7955264,7.41725313 29.8257687,7.29565365 29.8427801,7.26226105 L30.0236042,7.06883597 C30.1565445,6.98125915 30.2743637,6.89431237 30.4350262,6.83445771 C30.663104,6.71285823 31.2805521,6.50620212 31.4242033,6.56605679 C31.4242033,6.56605679 31.4645265,6.59944939 31.470827,6.59944939 C31.4909885,6.64040258 31.4909885,6.7008873 31.4909885,6.73995034 C31.4645265,6.93463551 31.3605684,7.16271329 31.3605684,7.34353739 Z M29.8056072,4.99786455 C29.8056072,4.85673355 30.1376431,4.7571858 30.1376431,4.7571858 C30.2882248,4.69040059 30.4425868,4.66330848 30.5900183,4.60345381 C30.5900183,4.60345381 30.6996469,4.58959273 30.791004,4.48878487 C30.8748005,4.41506913 31.3101644,4.4018381 31.3101644,4.4018381 C31.4809078,4.46295286 31.6926043,4.51650704 31.8702781,4.53603856 L31.8664978,4.6097543 C31.8967402,4.66897892 31.906821,4.7162326 31.9742362,4.7571858 L31.9742362,4.86429414 C31.9742362,4.97770298 31.856417,5.02495667 31.8261747,5.11253349 C31.76569,5.11253349 31.6926043,5.07851084 31.6554314,5.12513447 L31.6151082,5.11253349 C31.2868526,5.27256597 31.0153015,5.54096689 30.649873,5.62098312 L30.3751716,5.65500578 C30.3316982,5.64807523 30.2743637,5.64807523 30.2510519,5.65500578 C30.0903894,5.68839838 29.6947185,5.66823681 29.6550254,5.48048217 C29.6348639,5.37967431 29.6947185,5.02495667 29.8056072,4.99786455 Z M27.4700151,8.89156805 C27.4498536,8.91803011 27.456154,8.95205276 27.4498536,8.97851482 C27.4498536,9.01883797 27.3458955,9.09255371 27.3326644,9.15933892 C27.2954915,9.15933892 27.0875753,9.21226304 27.0504024,9.22675417 C26.916832,9.22675417 26.5079301,9.49389499 26.4915489,9.49389499 C26.4745375,9.51405657 26.4071223,9.54177873 26.3970415,9.57454128 C26.37751,9.57454128 26.37751,9.57454128 26.37751,9.56131025 C26.3567184,9.50775607 26.4537459,9.32000144 26.4638267,9.23935515 C26.4638267,9.17256995 26.4241336,9.12594631 26.4342144,9.05223057 C26.4342144,8.97851482 26.4915489,8.94512222 26.4915489,8.87770697 C26.4915489,8.81092176 26.4978494,8.75043705 26.4978494,8.69688287 C26.531242,8.54252084 26.595507,8.41525092 26.6515813,8.28105046 L26.7259271,8.10022637 C26.7259271,8.08699533 26.7089158,8.08699533 26.7391582,8.08699533 C26.8632778,8.08699533 26.9470744,8.00634905 27.0604832,7.97295645 L27.3156531,7.90554119 C27.3326644,7.90554119 27.3326644,7.91247173 27.3326644,7.89231016 C27.3994496,7.91247173 27.5166388,7.92633281 27.5701929,7.99311802 C27.751017,8.16701157 27.519789,8.69688287 27.4700151,8.89156805 Z M3.41474016,18.9351809 C3.33787417,18.975504 3.21375449,19.0088966 3.03608064,19.0422892 C2.85147626,19.0826124 2.63095907,19.102774 2.38902021,19.102774 C1.76653169,19.102774 1.2637525,18.9484119 0.878162448,18.6737105 C0.478711313,18.3788475 0.294736973,17.9693156 0.294736973,17.4205428 L0.294736973,17.2800419 C0.294736973,16.7640317 0.486271902,16.3557598 0.884462939,16.0470358 C1.28013378,15.7383117 1.78228292,15.5776492 2.36633844,15.5776492 C2.63095907,15.5776492 2.84832601,15.5915103 3.01654912,15.6179723 C3.18666238,15.6312034 3.32464314,15.6715265 3.41474016,15.7118496 L3.41474016,16.2480214 C3.32464314,16.2007678 3.2099742,16.1812362 3.06317276,16.1541441 C2.91889151,16.1276821 2.74121766,16.113821 2.5364517,16.113821 C2.17165327,16.113821 1.87994053,16.2215594 1.67202432,16.4357761 C1.46095787,16.6436923 1.35384952,16.9448558 1.35384952,17.3260355 L1.35384952,17.3726591 C1.35384952,17.782191 1.45087709,18.077054 1.64871251,18.2780397 C1.84276763,18.4657943 2.11872914,18.5659721 2.44635468,18.5659721 C2.67380241,18.5659721 2.86470729,18.5464406 3.03608064,18.5124179 C3.18666238,18.4790253 3.32464314,18.4525633 3.41474016,18.4122401 L3.41474016,18.9351809 Z M7.3424663,19.0353587 L6.31359611,19.0353587 L6.31359611,17.5742748 L5.14044467,17.5742748 L5.14044467,19.0353587 L4.10464393,19.0353587 L4.10464393,15.6312034 L5.14044467,15.6312034 L5.14044467,17.0450336 L6.31359611,17.0450336 L6.31359611,15.6312034 L7.3424663,15.6312034 L7.3424663,19.0353587 Z M8.41417984,19.0353587 L9.44683033,19.0353587 L9.44683033,15.6312034 L8.41417984,15.6312034 L8.41417984,19.0353587 Z M13.9340401,19.0353587 L13.4885954,19.0353587 L11.2027772,16.8906715 L11.2027772,19.0353587 L10.4593192,19.0353587 L10.4593192,15.6312034 L11.0150226,15.6312034 L13.1937324,17.6687822 L13.1937324,15.6312034 L13.9340401,15.6312034 L13.9340401,19.0353587 Z M16.8297458,15.6312034 L15.8645105,15.6312034 L14.3328612,19.0353587 L15.1746068,19.0353587 L15.5123131,18.230786 L17.0307314,18.230786 L17.3621373,19.0353587 L18.4218799,19.0353587 L16.8297458,15.6312034 Z M15.7107786,17.7280068 L16.2400198,16.4691687 L16.819665,17.7280068 L15.7107786,17.7280068 Z M23.0659719,16.1409131 L22.0742746,16.1409131 L22.0742746,19.0353587 L21.0454044,19.0353587 L21.0454044,16.1409131 L20.0335455,16.1409131 L20.0335455,15.6312034 L23.0659719,15.6312034 L23.0659719,16.1409131 Z M26.4537459,19.0353587 L23.5454392,19.0353587 L23.5454392,15.6312034 L26.3340366,15.6312034 L26.3340366,16.1409131 L24.5743094,16.1409131 L24.5743094,17.0582646 L25.9314352,17.0582646 L25.9314352,17.5818354 L24.5743094,17.5818354 L24.5743094,18.5325795 L26.4537459,18.5325795 L26.4537459,19.0353587 Z M29.8257687,19.0353587 L27.0875753,19.0353587 L27.0875753,15.6312034 L28.1202258,15.6312034 L28.1202258,18.5325795 L29.8257687,18.5325795 L29.8257687,19.0353587 Z M33.421459,19.0353587 L30.508742,19.0353587 L30.508742,15.6312034 L33.2973393,15.6312034 L33.2973393,16.1409131 L31.5445427,16.1409131 L31.5445427,17.0582646 L32.895368,17.0582646 L32.895368,17.5818354 L31.5445427,17.5818354 L31.5445427,18.5325795 L33.421459,18.5325795 L33.421459,19.0353587 Z M36.9705256,18.9351809 C36.8999601,18.975504 36.7720602,19.0088966 36.5880858,19.0422892 C36.397181,19.0826124 36.1898948,19.102774 35.9448057,19.102774 C35.3248374,19.102774 34.8220582,18.9484119 34.4270174,18.6737105 C34.0445776,18.3788475 33.8467422,17.9693156 33.8467422,17.4205428 L33.8467422,17.2800419 C33.8467422,16.7640317 34.0445776,16.3557598 34.4433987,16.0470358 C34.8359193,15.7383117 35.3317679,15.5776492 35.9315747,15.5776492 C36.1898948,15.5776492 36.397181,15.5915103 36.5679243,15.6179723 C36.7462282,15.6312034 36.8797986,15.6715265 36.9705256,15.7118496 L36.9705256,16.2480214 C36.8835789,16.2007678 36.7663897,16.1812362 36.6214784,16.1541441 C36.4708967,16.1276821 36.2970031,16.113821 36.102318,16.113821 C35.7268087,16.113821 35.4388763,16.2215594 35.2309601,16.4357761 C35.0230438,16.6436923 34.9197158,16.9448558 34.9197158,17.3260355 L34.9197158,17.3726591 C34.9197158,17.782191 35.0167434,18.077054 35.2007177,18.2780397 C35.4054837,18.4657943 35.6732545,18.5659721 36.0021402,18.5659721 C36.2327381,18.5659721 36.4343538,18.5464406 36.5880858,18.5124179 C36.7594592,18.4790253 36.8797986,18.4525633 36.9705256,18.4122401 L36.9705256,18.9351809 Z M39.9563284,18.3315938 C39.822758,18.5124179 39.6041309,18.6132258 39.3130482,18.6132258 C38.9545503,18.6132258 38.7226922,18.526279 38.6187341,18.3517554 C38.5217065,18.1709313 38.4719327,17.8496063 38.4719327,17.3871502 L38.4719327,17.3058739 C38.4719327,16.8371174 38.5286371,16.5164224 38.642676,16.3418988 C38.7466341,16.1610747 38.9778621,16.0671973 39.3130482,16.0671973 C39.6715462,16.0671973 39.9090747,16.1610747 40.0067323,16.3683608 C40.1006096,16.5699765 40.1541638,16.884371 40.1541638,17.3058739 L40.1541638,17.3928207 C40.1541638,17.8294447 40.0867485,18.1438392 39.9563284,18.3315938 Z M41.1893345,17.2592503 C41.1893345,16.7709622 41.0280419,16.3683608 40.7174277,16.0533363 C40.4087036,15.7383117 39.9462476,15.5776492 39.3395103,15.5776492 C38.7163917,15.5776492 38.2438549,15.7383117 37.9288303,16.0533363 C37.590494,16.3683608 37.4329817,16.7640317 37.4329817,17.2592503 L37.4329817,17.4463748 C37.4329817,17.9831767 37.6106555,18.385148 37.9521422,18.6737105 C38.3037096,18.9553425 38.7466341,19.102774 39.3130482,19.102774 C39.8756821,19.102774 40.324277,18.9553425 40.6663937,18.6737105 C41.0122907,18.385148 41.1893345,17.9831767 41.1893345,17.4463748 L41.1893345,17.2592503 Z M46.6587908,19.0353587 L45.7231679,19.0353587 L45.7231679,17.0922872 L44.3194184,19.0353587 L43.7832467,19.0353587 L42.4689642,17.0922872 L42.4689642,19.0353587 L41.7626792,19.0353587 L41.7626792,15.6312034 L42.5231484,15.6312034 L44.2457027,18.1104466 L45.9915688,15.6312034 L46.6587908,15.6312034 L46.6587908,19.0353587 Z" id="Fill-6" fill="#FFFFFF" mask="url(#mask-4)"></path>
            </g>
        </g>
    </g>
</svg>