<?xml version="1.0" encoding="UTF-8"?>
<svg width="16px" height="16px" viewBox="0 0 16 16" version="1.1" xmlns="http://www.w3.org/2000/svg" xmlns:xlink="http://www.w3.org/1999/xlink">
    <!-- Generator: Sketch 50.2 (55047) - http://www.bohemiancoding.com/sketch -->
    <title>流量套餐</title>
    <desc>Created with Sketch.</desc>
    <defs></defs>
    <g id="Page-1" stroke="none" stroke-width="1" fill="none" fill-rule="evenodd">
        <g id="充值列表2" transform="translate(-146.000000, -540.000000)">
            <g id="流量套餐" transform="translate(146.000000, 540.000000)">
                <path d="M0,5.26759024 C0,8.16819512 2.35137561,10.5196488 5.25198049,10.5196488 C8.15258537,10.5196488 10.504039,8.16819512 10.504039,5.26759024 C10.504039,2.36698537 8.15258537,0.0156097561 5.25198049,0.0156097561 C2.35137561,0.0156097561 0,2.36698537 0,5.26759024 Z" id="Fill-1" fill="#8CF6FB"></path>
                <path d="M15.3714286,4.88685714 C14.968,3.93371429 14.392,3.07885714 13.656,2.344 C12.9211429,1.608 12.0662857,1.03314286 11.1131429,0.628571429 C10.1268571,0.212571429 9.07885714,0 8,0 C6.92114286,0 5.87314286,0.212571429 4.88571429,0.628571429 C3.93257143,1.03314286 3.07771429,1.608 2.344,2.344 C1.608,3.07885714 1.032,3.93371429 0.628571429,4.88685714 C0.212571429,5.87314286 0,6.92114286 0,8 C0,9.07885714 0.212571429,10.1268571 0.628571429,11.1142857 C1.03314286,12.0674286 1.608,12.9222857 2.344,13.6582857 C3.07885714,14.3931429 3.93371429,14.9691429 4.88685714,15.3725714 C5.87314286,15.7885714 6.92114286,16.0011429 8.00114286,16.0011429 C9.08114286,16.0011429 10.128,15.7885714 11.1154286,15.3725714 C12.0685714,14.9691429 12.9234286,14.3931429 13.6582857,13.6582857 C14.3942857,12.9222857 14.9702857,12.0674286 15.3737143,11.1142857 C15.7874286,10.128 16,9.08 16,8 C16,6.92 15.7874286,5.87314286 15.3714286,4.88685714 Z M14.3636346,10.6171643 C14.0171646,11.4321911 13.5230007,12.1661593 12.8955792,12.7946404 C12.2670471,13.4220111 11.5319089,13.9172453 10.7179266,14.2625768 C9.87285084,14.6190122 8.97558248,14.8000059 8.05055209,14.8000059 C7.12552171,14.8000059 6.22825334,14.6190122 5.38428805,14.2625768 C4.57030573,13.916135 3.83516754,13.4220111 3.20663549,12.7946404 C2.57921392,12.1661593 2.08393955,11.4310807 1.73858006,10.6171643 C1.38100529,9.77215706 1.19999695,8.87496142 1.19999695,7.95000601 C1.19999695,7.0250506 1.38100529,6.12785496 1.73746958,5.28395806 C2.08393955,4.47004172 2.57810344,3.73496311 3.20663549,3.106482 C3.83516754,2.47911129 4.57030573,1.98387706 5.38428805,1.63854557 C6.22825334,1.28099978 7.12552171,1.1000061 8.05055209,1.1000061 C8.97558248,1.1000061 9.87285084,1.28099978 10.7168161,1.63743518 C11.5307985,1.98387706 12.2659366,2.4780009 12.8944687,3.10537161 C13.5218903,3.73385272 14.0171646,4.46893133 14.3625241,5.28284767 C14.7189884,6.12785496 14.8999968,7.02394021 14.8999968,7.94889562 C14.8999968,8.87385103 14.7200989,9.77215706 14.3636346,10.6171643 Z" id="Shape" fill="#3C2DCB" fill-rule="nonzero"></path>
                <path d="M12.9131429,7.59428571 L11.2137143,7.59428571 L10.5897143,5.61142857 C10.56,5.49828571 10.4411429,5.42971429 10.328,5.46057143 L9.96342857,5.46514286 C9.85257143,5.43542857 9.76571429,5.528 9.736,5.63771429 L8.82857143,9.99542857 L7.6,3.92914286 C7.57142857,3.81828571 7.45714286,3.752 7.34742857,3.78285714 C7.34742857,3.78285714 7.03771429,3.78857143 6.89257143,3.78857143 C6.74742857,3.78857143 6.69942857,3.93485714 6.69942857,3.93485714 L5.78285714,8.728 L5.456,7.712 C5.42514286,7.59657143 5.31657143,7.58171429 5.18971429,7.58742857 L3.08685714,7.59314286 C2.968,7.59314286 2.87314286,7.68914286 2.87314286,7.808 L2.87314286,8.23542857 C2.87314286,8.35428571 2.968,8.44914286 3.08685714,8.44914286 L4.77828571,8.44914286 L5.40457143,10.4034286 C5.43542857,10.5177143 5.55542857,10.5851429 5.67085714,10.5542857 L6.00342857,10.5497143 C6.11542857,10.5794286 6.24571429,10.4868571 6.27542857,10.3771429 L7.21371429,5.96114286 L8.45257143,12.0742857 C8.48228571,12.1851429 8.59542857,12.2502857 8.70628571,12.2205714 C8.70628571,12.2205714 8.93257143,12.2171429 9.06514286,12.2171429 C9.19885714,12.2171429 9.21942857,11.9691429 9.21942857,11.9691429 L10.2171429,7.28228571 L10.5348571,8.296 C10.5657143,8.41028571 10.6834286,8.47657143 10.7965714,8.44685714 L12.9108571,8.45028571 C13.0297143,8.45028571 13.1245714,8.35542857 13.1245714,8.23657143 L13.1245714,7.80685714 C13.1257143,7.68914286 13.0308571,7.59428571 12.9131429,7.59428571 Z" id="Path" fill="#D098FF"></path>
            </g>
        </g>
    </g>
</svg>