<?xml version="1.0" encoding="UTF-8"?>
<svg width="80px" height="24px" viewBox="0 0 80 24" version="1.1" xmlns="http://www.w3.org/2000/svg" xmlns:xlink="http://www.w3.org/1999/xlink">
    <!-- Generator: Sketch 50.2 (55047) - http://www.bohemiancoding.com/sketch -->
    <title>中国联通</title>
    <desc>Created with Sketch.</desc>
    <defs>
        <polygon id="path-1" points="0 0 25.8064516 0 25.8064516 19.3548387 0 19.3548387"></polygon>
    </defs>
    <g id="中国联通" stroke="none" stroke-width="1" fill="none" fill-rule="evenodd">
        <g id="Page-1" transform="translate(0.000000, 2.000000)">
            <g id="Group-3">
                <mask id="mask-2" fill="white">
                    <use xlink:href="#path-1"></use>
                </mask>
                <g id="Clip-2"></g>
                <path d="M16.9221539,16.8313849 C16.4748233,17.2776549 15.7411417,17.2776549 15.2952948,16.8313849 C14.8590918,16.4035559 14.4755596,16.0221979 14.4755596,16.0221979 L15.7077588,14.7903453 L14.1550839,13.2427844 L12.9214009,14.4775875 L11.678074,13.2427844 L10.1276246,14.7903453 L11.3672423,16.0221979 C11.3672423,16.0221979 10.9829682,16.4035559 10.5475071,16.8313849 C10.1009183,17.2776549 9.36204385,17.2776549 8.91026218,16.8313849 C8.46441524,16.3873279 8.46441524,15.6496916 8.91026218,15.2063722 C9.37836437,14.7387108 12.9102733,11.2083835 12.9102733,11.2083835 C12.9102733,11.2083835 16.4533099,14.7387108 16.9221539,15.2063722 C17.3798703,15.6496916 17.3798703,16.3873279 16.9221539,16.8313849 Z M8.91026218,4.15289233 C8.46441524,3.69408256 8.46441524,2.97636244 8.91026218,2.52492903 C9.36204385,2.07644617 10.1009183,2.07644617 10.5475071,2.52492903 C10.9829682,2.95570863 11.3672423,3.33559132 11.3672423,3.33559132 L10.1276246,4.56449339 L11.678074,6.10984142 L12.9214009,4.87946408 L14.1550839,6.10984142 L15.7077588,4.56449339 L14.4755596,3.33559132 C14.4755596,3.33559132 14.8590918,2.95570863 15.2952948,2.52492903 C15.7411417,2.07644617 16.4748233,2.07644617 16.9221539,2.52492903 C17.3798703,2.97636244 17.3798703,3.69408256 16.9221539,4.15289233 C16.4533099,4.61612793 12.9102733,8.14940577 12.9102733,8.14940577 C12.9102733,8.14940577 9.37836437,4.61612793 8.91026218,4.15289233 Z M14.4755596,9.6844269 C14.4755596,9.6844269 18.1202285,6.05894452 18.4763125,5.69455219 C19.7886307,4.39336177 19.7886307,2.28298433 18.4763125,0.975892817 C17.1669617,-0.325297606 15.0482614,-0.325297606 13.7307504,0.975892817 C13.2203632,1.49223822 12.9214009,1.79171856 12.9214009,1.79171856 C12.9214009,1.79171856 12.6194713,1.49223822 12.1031494,0.975892817 C10.7930567,-0.325297606 8.66990542,-0.325297606 7.35536171,0.975892817 C6.04823641,2.28298433 6.04823641,4.39336177 7.35536171,5.69455219 C7.7188642,6.05894452 11.3672423,9.6844269 11.3672423,9.6844269 C11.3672423,9.6844269 7.7188642,13.2973695 7.35536171,13.6617618 C6.04823641,14.9636899 6.04823641,17.0748049 7.35536171,18.3833717 C8.66990542,19.678661 10.7930567,19.678661 12.1031494,18.3833717 C12.6194713,17.8603876 12.9214009,17.5616449 12.9214009,17.5616449 C12.9214009,17.5616449 13.2203632,17.8603876 13.7307504,18.3833717 C15.0482614,19.678661 17.1669617,19.678661 18.4763125,18.3833717 C19.7886307,17.0748049 19.7886307,14.9636899 18.4763125,13.6617618 C18.1202285,13.2973695 14.4755596,9.6844269 14.4755596,9.6844269 Z M23.2693526,10.4862376 C22.8235056,10.9420968 22.0890822,10.9420968 21.6358169,10.4862376 C21.2686052,10.1211076 20.8175653,9.6844269 20.8175653,9.6844269 C20.8175653,9.6844269 21.2686052,9.22856767 21.6358169,8.86786352 C22.0890822,8.41347957 22.8235056,8.41347957 23.2693526,8.86786352 C23.497098,9.09136732 23.6046651,9.38125838 23.6046651,9.6844269 C23.6046651,9.96915451 23.497098,10.2649467 23.2693526,10.4862376 Z M24.8220275,7.31735203 C23.5186114,6.0220627 21.3910091,6.0220627 20.0824001,7.31735203 C19.7099955,7.69428418 19.2626649,8.13465305 19.2626649,8.13465305 L18.0282401,6.90870153 L16.4748233,8.44298502 L17.7085062,9.6844269 L16.4748233,10.9059526 L18.0282401,12.4498254 L19.2626649,11.2231362 C19.2626649,11.2231362 19.7099955,11.6649803 20.0824001,12.0382243 C21.3910091,13.3379395 23.5186114,13.3379395 24.8220275,12.0382243 C25.4822667,11.3861538 25.8064516,10.5297581 25.8064516,9.6844269 C25.8064516,8.82581825 25.4822667,7.96868488 24.8220275,7.31735203 Z M4.17582764,10.4862376 C3.71885308,10.9420968 2.98368783,10.9420968 2.5363572,10.4862376 C2.31306281,10.2649467 2.20178654,9.96915451 2.20178654,9.6844269 C2.20178654,9.38125838 2.31306281,9.09136732 2.5363572,8.86786352 C2.98368783,8.41347957 3.71885308,8.41347957 4.17582764,8.86786352 C4.53710461,9.22856767 4.98888628,9.6844269 4.98888628,9.6844269 C4.98888628,9.6844269 4.53710461,10.1211076 4.17582764,10.4862376 Z M7.77153497,12.4498254 L9.33607938,10.9059526 L8.09646169,9.6844269 L9.33607938,8.44298502 L7.77153497,6.90870153 L6.53711017,8.13465305 C6.53711017,8.13465305 6.10164902,7.69428418 5.72330969,7.31735203 C4.42063544,6.0220627 2.28709835,6.0220627 0.982198578,7.31735203 C0.323443036,7.96868488 0,8.82581825 0,9.6844269 C0,10.5297581 0.323443036,11.3861538 0.982198578,12.0382243 C2.28709835,13.3379395 4.42063544,13.3379395 5.72330969,12.0382243 C6.10164902,11.6649803 6.53711017,11.2231362 6.53711017,11.2231362 L7.77153497,12.4498254 Z" id="Fill-1" fill="#FFFFFF" mask="url(#mask-2)"></path>
            </g>
            <g id="Group-5" transform="translate(29.677419, 12.903226)" fill="#FFFFFF">
                <g id="Group-9">
                    <path d="M19.8838765,5.24053052 C19.6378509,5.48031172 19.3180177,5.60488554 18.9079751,5.60488554 C18.5327861,5.60488554 18.223204,5.47562849 17.973078,5.23022742 C17.7362784,4.98763628 17.6183912,4.67573339 17.6183912,4.28889888 C17.6183912,3.9254805 17.7362784,3.6154509 17.9802538,3.37379641 C18.2303797,3.1255854 18.5450874,3.00194822 18.9192513,3.00194822 C19.3180177,3.00194822 19.6378509,3.1255854 19.8838765,3.37379641 C20.1329774,3.60795774 20.2559901,3.9254805 20.2559901,4.3038852 C20.2559901,4.68509985 20.1329774,4.99512944 19.8838765,5.24053052 Z M20.1914084,2.2573152 L20.1914084,2.73968754 C19.7598386,2.34161328 19.2657373,2.15053763 18.7183304,2.15053763 C18.088915,2.15053763 17.5548346,2.3565996 17.1365911,2.76123038 C16.7193728,3.16773444 16.5,3.68007943 16.5,4.28889888 C16.5,4.90614814 16.7193728,5.43066951 17.1365911,5.84185681 C17.5671358,6.2530441 18.0940406,6.4516129 18.7521589,6.4516129 C19.2657373,6.4516129 19.7424118,6.27552358 20.1914084,5.90461204 L20.1914084,6.33546888 L21.2903226,6.33546888 L21.2903226,2.2573152 L20.1914084,2.2573152 Z" id="Fill-4"></path>
                    <path d="M5.85483871,0 L6.921266,0 L6.921266,2.51043045 C6.921266,2.51043045 7.30445358,1.93446627 8.13103029,1.93446627 C8.8859385,1.93446627 9.58064516,2.46972626 9.58064516,3.82314033 L9.58064516,6.4516129 L8.61073145,6.4516129 L8.61073145,3.74885519 C8.61073145,3.28380991 8.43681589,2.70275771 7.82046679,2.70275771 C7.22131812,2.70275771 6.921266,3.17390862 6.921266,3.74885519 L6.921266,6.4516129 L5.85483871,6.4516129 L5.85483871,0 Z" id="Fill-6"></path>
                    <path d="M5.32258065,5.20769451 C5.07520584,5.54908214 4.77453484,5.84549655 4.3883888,6.06422994 C3.94190745,6.32282595 3.4421299,6.4516129 2.90112321,6.4516129 C2.09966907,6.4516129 1.41486321,6.15417638 0.851733574,5.58587841 C0.282570406,5.01349197 0,4.32560612 0,3.49871213 C0,2.62991128 0.314749243,1.88989738 0.958325969,1.30831187 C1.51944443,0.795208308 2.16201557,0.537634409 2.8930785,0.537634409 C3.41799577,0.537634409 3.91676773,0.680731019 4.38336086,0.935238562 C4.7604566,1.16112678 5.07520584,1.44220941 5.32258065,1.79586246 L4.3622435,2.48783679 C4.30693612,2.31918721 4.20637726,2.18017908 4.09174016,2.03810458 C3.77598532,1.67320823 3.38078899,1.48718263 2.88101144,1.48718263 C2.40335684,1.48718263 2.0001158,1.67320823 1.68234979,2.05037001 C1.36156701,2.42753179 1.20469518,2.91201603 1.20469518,3.49871213 C1.20469518,4.10278425 1.36156701,4.59033485 1.68234979,4.97669569 C1.9910655,5.34568053 2.39028419,5.52659553 2.88101144,5.52659553 C3.36067722,5.52659553 3.76391826,5.34568053 4.09174016,4.95931968 C4.19933814,4.82133366 4.30090259,4.67108222 4.3622435,4.50754324 C4.3622435,4.50754324 5.07520584,5.02575739 5.32258065,5.20769451" id="Fill-8"></path>
                    <path d="M13.1886725,2.70092433 L13.1409057,2.20736164 L12.2419355,2.20736164 L12.2419355,6.4516129 L13.2851613,6.4516129 L13.2851613,3.87519627 C13.2851613,3.33315001 13.6071092,2.87352582 14.1936849,2.87352582 C14.8175186,2.87352582 14.9971216,3.43690484 14.9971216,3.87519627 L14.9971216,6.4516129 L15.9677419,6.4516129 L15.9677419,3.9518003 C15.9677419,2.65147109 15.2732134,2.1511207 14.5194541,2.1511207 C13.5106203,2.12978793 13.1886725,2.70092433 13.1886725,2.70092433 Z" id="Fill-10"></path>
                    <polygon id="Fill-12" points="10.1129032 6.4516129 11.1774194 6.4516129 11.1774194 2.15053763 10.1129032 2.15053763"></polygon>
                    <path d="M10.6323518,1.61290323 C10.3178557,1.61290323 10.1129032,1.35984506 10.1129032,1.0729849 C10.1129032,0.769680525 10.3346406,0.537634409 10.645603,0.537634409 C10.9760005,0.537634409 11.1774194,0.769680525 11.1774194,1.0729849 C11.1774194,1.35984506 10.9760005,1.61290323 10.645603,1.61290323 L10.6323518,1.61290323 Z" id="Fill-14"></path>
                </g>
                <g id="Group-8" transform="translate(23.225806, 0.645161)">
                    <path d="M9.8420402,1.05571848 C9.5355794,1.05571848 9.33586338,0.818629157 9.33586338,0.538595358 C9.33586338,0.231721259 9.55193546,0 9.85495288,0 C10.1769089,0 10.3731815,0.231721259 10.3731815,0.538595358 C10.3731815,0.818629157 10.1769089,1.05571848 9.85495288,1.05571848 L9.8420402,1.05571848 Z" id="Fill-15"></path>
                    <path d="M25.0901633,1.58456129 C24.4552096,1.57308356 24.0091839,1.83420184 23.6439882,2.23496578 C23.3927336,1.78924741 22.9720281,1.59986492 22.5308717,1.58456129 C21.6212909,1.55682345 21.236618,2.1249709 21.236618,2.1249709 L21.1927945,1.61995094 L20.227704,1.61995094 L20.227704,5.80645161 L21.310631,5.80645161 L21.310631,3.28135183 C21.310631,2.73998574 21.6037615,2.30478861 22.1598328,2.30478861 C22.7392767,2.30478861 22.9048321,2.85093709 22.9048321,3.28709069 L22.9048321,5.80645161 L23.887452,5.80645161 L23.887452,3.33395807 L23.887452,3.34639228 C23.8932952,2.63859915 24.2214844,2.30478861 24.7191244,2.30478861 C25.2975944,2.30478861 25.468993,2.85093709 25.468993,3.28709069 L25.468993,5.80645161 L26.4516129,5.80645161 L26.4516129,3.35404409 C26.4516129,2.08671181 25.798156,1.59986492 25.0901633,1.58456129" id="Fill-16"></path>
                    <polygon id="Fill-17" points="9.33586338 5.80645161 10.3731815 5.80645161 10.3731815 1.58357771 9.33586338 1.58357771"></polygon>
                    <path d="M17.679381,2.40731192 C17.3613943,2.40731192 17.1042793,2.54046144 16.894408,2.80121257 C16.6772685,3.06751161 16.5755128,3.41055654 16.5755128,3.81370369 C16.5755128,4.24089172 16.6772685,4.58948455 16.8816886,4.84838639 C17.0988281,5.10821288 17.3559431,5.23488985 17.679381,5.23488985 C18.0000933,5.23488985 18.2726534,5.10821288 18.4788905,4.84283849 C18.6951215,4.57838876 18.8086882,4.23441918 18.8086882,3.81370369 C18.8086882,3.40500865 18.6951215,3.06751161 18.4897929,2.79474003 C18.2790131,2.54046144 18.0109957,2.40731192 17.679381,2.40731192 M17.6121495,1.70087977 C17.9873739,1.70087977 18.3307995,1.7988926 18.6605972,1.98937038 C18.9903949,2.17337562 19.2538696,2.4405993 19.4301251,2.75590475 C19.6118318,3.0841553 19.7090449,3.44106997 19.7090449,3.81092974 C19.7090449,4.1937346 19.6118318,4.54695068 19.4237654,4.87797517 C19.2411501,5.20715037 18.9903949,5.4679015 18.6733167,5.64728349 C18.3526044,5.83961057 18.0000933,5.92375367 17.6176007,5.92375367 C17.042499,5.92375367 16.5627933,5.73050194 16.1630386,5.31348505 C15.7560155,4.90571465 15.5597723,4.40640397 15.5597723,3.81370369 C15.5597723,3.19048998 15.7887227,2.66806306 16.243898,2.25566942 C16.6418357,1.88580965 17.0988281,1.70087977 17.6121495,1.70087977" id="Fill-18"></path>
                    <path d="M7.4089607,1.58372262 C6.44259182,1.57326562 6.11768393,2.1322401 6.11768393,2.1322401 L6.0694119,1.64646466 L5.18659077,1.64646466 L5.18659077,5.80645161 L6.20958645,5.80645161 L6.20958645,3.29106645 C6.20958645,2.74159833 6.51314324,2.31191047 7.08590943,2.31191047 C7.68930979,2.31191047 7.86383174,2.84997094 7.86383174,3.29106645 L7.86383174,5.80645161 L8.8172043,5.80645161 L8.8172043,3.36236421 C8.8172043,2.09706653 8.14325252,1.60558727 7.4089607,1.58372262" id="Fill-19"></path>
                    <path d="M1.70257976,5.80624778 C2.77332686,5.81861703 3.12547915,5.26390395 3.12547915,5.26390395 L3.17549498,5.74820748 L4.14927261,5.74820748 L4.14927261,1.58357771 L3.01728163,1.58357771 L3.01728163,4.11070969 C3.01728163,4.65305352 2.69575128,5.09073451 2.05575278,5.09073451 C1.38921526,5.09073451 1.12790805,4.5426818 1.12790805,4.11070969 L1.12790805,1.58357771 L0,1.58357771 L0,4.02697941 C0,5.30767205 0.891098399,5.7957815 1.70257976,5.80624778" id="Fill-20"></path>
                    <path d="M15.5597723,4.91334654 C15.3803549,5.17076009 15.1339025,5.36912537 14.836188,5.52412707 C14.4911547,5.71234343 14.0948592,5.80645161 13.6739185,5.80645161 C13.0548301,5.80645161 12.5244645,5.59609215 12.0788786,5.19290319 C11.6352643,4.78048793 11.4104997,4.28319078 11.4104997,3.69916649 C11.4104997,3.07454652 11.6707534,2.5495705 12.1656298,2.12516106 C12.5993861,1.7662583 13.1051064,1.58357771 13.6739185,1.58357771 C14.0692282,1.58357771 14.4665094,1.674918 14.8253441,1.8705154 C15.1201012,2.02274922 15.3675394,2.22849553 15.5538574,2.47299227 L14.7494368,3.01642088 C14.7011321,2.89924697 14.6262106,2.80790668 14.5503033,2.72302479 C14.3294819,2.47299227 14.0445829,2.34659207 13.6867341,2.34659207 C13.3525446,2.34659207 13.0686314,2.47299227 12.8438668,2.72302479 C12.6122016,2.97674782 12.5008051,3.30059067 12.5008051,3.69916649 C12.5008051,4.1005102 12.6122016,4.42804357 12.8438668,4.68453449 C13.0686314,4.93272175 13.3525446,5.05266355 13.6867341,5.05266355 C14.0327532,5.05266355 14.3176522,4.93272175 14.5404452,4.67992135 C14.6262106,4.58304528 14.7011321,4.48155607 14.7494368,4.37176319 L15.5597723,4.91334654 Z" id="Fill-21"></path>
                </g>
            </g>
            <g id="Group-7" transform="translate(29.677419, 0.000000)" fill="#FFFFFF">
                <path d="M41.2647302,1.90236675 C40.4816025,0.814730892 39.6411247,0.23107282 39.6411247,0.23107282 L38.8065796,0.826682935 L40.1988065,2.69916958 L41.2647302,1.90236675 Z M46.3748357,4.26687915 L48.0281051,4.26687915 L48.0281051,3.54577259 L46.3748357,3.54577259 L46.3748357,4.26687915 Z M46.3748357,5.97402921 L48.0281051,5.97402921 L48.0281051,5.26288268 L46.3748357,5.26288268 L46.3748357,5.97402921 Z M43.3253842,4.26687915 L44.9628328,4.26687915 L44.9628328,3.54577259 L43.3253842,3.54577259 L43.3253842,4.26687915 Z M43.3253842,5.97402921 L44.9628328,5.97402921 L44.9628328,5.26288268 L43.3253842,5.26288268 L43.3253842,5.97402921 Z M45.4493212,2.09957545 C44.7749613,1.64738985 44.0234752,1.30078062 44.0234752,1.30078062 L43.4737038,2.02188718 L44.0234752,2.49996887 L41.9094261,2.49996887 L41.9094261,8.7887352 L42.3326315,8.7887352 C42.8052767,8.7887352 43.3253842,8.47001407 43.3253842,7.84452385 L43.3253842,6.97600876 L44.9628328,6.97600876 L44.9628328,8.7887352 L45.4097693,8.7887352 C45.9516304,8.7887352 46.3511045,8.49591016 46.3748357,7.83655582 L46.3748357,6.97600876 L48.0281051,6.97600876 L48.0281051,7.40229828 C48.0281051,7.59751497 47.7888161,7.72699543 47.6048998,7.72699543 L46.9602038,7.72699543 L47.2429999,8.7887352 L48.2634389,8.7887352 C48.9575748,8.7887352 49.513279,8.2249972 49.513279,7.52381071 L49.513279,3.37645199 C49.513279,2.9003623 49.1296255,2.49996887 48.6609355,2.49996887 L47.0195317,2.49996887 L49.190931,1.20516428 L49.190931,0 L41.8342775,0 L41.8342775,1.03584368 L47.2074032,1.03584368 L45.4493212,2.09957545 Z M41.7373754,9.27478493 C41.3675651,9.27478493 41.0669707,8.96203982 41.0669707,8.58355847 L41.0669707,3.17725128 L38.7096774,3.17725128 L38.7096774,4.225047 L39.5007154,4.225047 L39.5007154,9.00785598 C39.5007154,9.81860286 40.1988065,10.3225806 40.7545107,10.3225806 L49.6774194,10.3225806 L49.6774194,9.27478493 L41.7373754,9.27478493 Z" id="Fill-22"></path>
                <path d="M34.6993742,6.09341386 L36.4959836,6.09341386 L36.4959836,5.02746943 L34.5034517,5.02746943 L34.5034517,3.41142515 L36.4959836,3.41142515 L36.4959836,2.34951077 L35.1930989,2.34951077 L36.3705932,0.82817232 L35.2440388,0 L33.7902938,2.34951077 L32.7362307,2.34951077 L33.5963305,1.70269005 C32.8537842,0.650850752 32.217036,0 32.217036,0 L31.4078761,0.50576947 L32.4638984,2.34951077 L31.162973,2.34951077 L31.162973,3.41142515 L32.8831726,3.41142515 L32.8831726,5.02746943 L31.162973,5.02746943 L31.162973,6.09341386 L32.6833316,6.09341386 L30.8925999,10.8407958 L31.6547384,10.8407958 C32.0700942,10.8407958 32.4893683,10.5526483 32.6480656,10.1738249 L33.7530685,7.34070988 L35.263631,10.8407958 L36.7741935,10.8407958 L34.6993742,6.09341386 Z M27.7931058,5.27934666 L29.0489691,5.27934666 L29.0489691,3.9937653 L27.7931058,3.9937653 L27.7931058,5.27934666 Z M29.0489691,7.62885743 L27.7950651,7.99357565 L27.7950651,6.34327606 L29.0489691,6.34327606 L29.0489691,7.62885743 Z M31.2099944,7.01629201 L30.5223064,7.21376376 L30.5223064,1.2896114 C30.5223064,0.626670539 30.1304613,0.221651959 29.6386958,0.221651959 L25.9729857,0.221651959 L25.9729857,1.2896114 L29.0489691,1.2896114 L29.0489691,2.92782088 L27.7950651,2.92782088 L27.7950651,1.83568122 L26.4196891,1.83568122 L26.4196891,8.40463928 L25.8064516,8.57994583 L25.8064516,9.7647763 L29.0489691,8.82174797 L29.0489691,10.9677419 L29.6386958,10.9677419 C30.0834399,10.9677419 30.4008344,10.6735493 30.5223064,10.1113594 L30.5223064,8.40463928 L31.2099944,8.19507743 L31.2099944,7.01629201 Z" id="Fill-23"></path>
                <path d="M9.17112897,6.18207464 C9.17112897,6.55888297 8.87102659,6.87524076 8.49489826,6.87524076 L6.39018018,6.87524076 L6.39018018,2.55101255 L9.17112897,2.55101255 L9.17112897,6.18207464 Z M9.83735627,1.47700805 L6.39018018,1.47700805 L6.39018018,0 L4.59356722,0 L4.59356722,1.47700805 L2.33479658,1.47700805 L2.33479658,2.55101255 L4.59356722,2.55101255 L4.59356722,6.87524076 L1.80861706,6.87524076 L1.80861706,1.47700805 L0,1.47700805 L0,7.9089449 L4.59356722,7.9089449 L4.59356722,10.9677419 L4.8716621,10.9677419 C5.89601158,10.9234115 6.35016653,10.4861527 6.39018018,9.71641588 L6.39018018,7.9089449 L9.42521566,7.9089449 C10.2414942,7.9089449 10.9317296,7.25607913 10.9677419,6.41984674 L10.9677419,2.56914771 C10.9317296,1.96665738 10.4495651,1.47700805 9.83735627,1.47700805 Z" id="Fill-24"></path>
                <path d="M21.6265957,7.20970537 L20.8093516,7.20970537 L21.3480822,6.56566221 C20.6345182,5.91168012 20.0693593,5.59164632 20.0693593,5.59164632 L19.4310144,6.21183603 L20.3499058,7.20970537 L19.0976113,7.20970537 L19.0976113,5.46045235 L21.5737391,5.46045235 L21.5737391,4.41686389 L19.0976113,4.41686389 L19.0976113,3.12281421 L21.5737391,3.12281421 L21.5737391,2.07326239 L15.1882567,2.07326239 L15.1882567,3.12281421 L17.4183982,3.12281421 L17.4183982,4.41686389 L15.1882567,4.41686389 L15.1882567,5.46045235 L17.4183982,5.46045235 L17.4183982,7.20970537 L15.1354002,7.20970537 L15.1354002,8.25528161 L21.6265957,8.25528161 L21.6265957,7.20970537 Z M22.7101558,0 L15.1354002,0 L15.1354002,1.03364952 L22.1897217,1.03364952 L22.1897217,8.60513222 C22.1897217,8.97684849 21.8847798,9.26905325 21.5005531,9.26905325 L14.5743072,9.26905325 L14.5743072,0 L12.9032258,0 L12.9032258,10.3225806 L22.3401596,10.3225806 C23.1817992,10.3225806 23.8709677,9.66462297 23.8709677,8.82577663 L23.8709677,1.11912438 C23.8709677,0.500922458 23.3586654,0 22.7101558,0 Z" id="Fill-25"></path>
            </g>
        </g>
    </g>
</svg>